<svg width="562" height="171" viewBox="0 0 562 171" fill="none" xmlns="http://www.w3.org/2000/svg">
<path d="M209 29H92V169H209V29Z" stroke="black" stroke-opacity="0.8" stroke-width="3"/>
<path d="M326 29H209V169H326V29Z" stroke="black" stroke-opacity="0.8" stroke-width="3"/>
<path d="M443 29H326V169H443V29Z" stroke="black" stroke-opacity="0.8" stroke-width="3"/>
<path d="M560 29H443V169H560V29Z" stroke="black" stroke-opacity="0.8" stroke-width="3"/>
<path d="M91.9988 76.25H560.001" stroke="black" stroke-opacity="0.8" stroke-width="3"/>
<path d="M92.5 123H561.5" stroke="black" stroke-opacity="0.8" stroke-width="3"/>
<path d="M92.5 123H561.5" stroke="black" stroke-opacity="0.8" stroke-width="3"/>
<path d="M133.426 4.79403V3.27273H140.594V4.79403H137.922V12H136.098V4.79403H133.426ZM141.774 12V3.27273H147.655V4.79403H143.619V6.87358H147.352V8.39489H143.619V10.4787H147.672V12H141.774ZM153.856 5.78267C153.822 5.43892 153.676 5.17187 153.417 4.98153C153.159 4.79119 152.808 4.69602 152.365 4.69602C152.064 4.69602 151.809 4.73864 151.602 4.82386C151.395 4.90625 151.235 5.02131 151.125 5.16903C151.017 5.31676 150.963 5.48438 150.963 5.67188C150.957 5.82812 150.99 5.96449 151.061 6.08097C151.135 6.19744 151.235 6.2983 151.363 6.38352C151.491 6.46591 151.639 6.53835 151.806 6.60085C151.974 6.66051 152.153 6.71165 152.343 6.75426L153.127 6.94176C153.508 7.02699 153.858 7.14062 154.176 7.28267C154.494 7.42472 154.77 7.59943 155.002 7.80682C155.235 8.0142 155.416 8.25852 155.544 8.53977C155.674 8.82102 155.741 9.14347 155.744 9.5071C155.741 10.0412 155.605 10.5043 155.335 10.8963C155.068 11.2855 154.681 11.5881 154.176 11.804C153.673 12.017 153.066 12.1236 152.356 12.1236C151.652 12.1236 151.038 12.0156 150.515 11.7997C149.995 11.5838 149.589 11.2642 149.297 10.8409C149.007 10.4148 148.855 9.88778 148.841 9.25994H150.626C150.646 9.55256 150.73 9.79687 150.877 9.9929C151.028 10.1861 151.228 10.3324 151.478 10.4318C151.731 10.5284 152.017 10.5767 152.335 10.5767C152.647 10.5767 152.919 10.5312 153.149 10.4403C153.382 10.3494 153.562 10.223 153.69 10.0611C153.818 9.89915 153.882 9.71307 153.882 9.50284C153.882 9.30682 153.824 9.14205 153.707 9.00852C153.593 8.875 153.426 8.76136 153.204 8.66761C152.985 8.57386 152.717 8.48864 152.399 8.41193L151.449 8.1733C150.713 7.99432 150.132 7.71449 149.706 7.33381C149.279 6.95312 149.068 6.44034 149.071 5.79545C149.068 5.26705 149.208 4.8054 149.493 4.41051C149.779 4.01562 150.173 3.70739 150.673 3.4858C151.173 3.2642 151.741 3.15341 152.377 3.15341C153.025 3.15341 153.591 3.2642 154.074 3.4858C154.559 3.70739 154.937 4.01562 155.207 4.41051C155.477 4.8054 155.616 5.26278 155.625 5.78267H153.856ZM156.653 4.79403V3.27273H163.82V4.79403H161.148V12H159.325V4.79403H156.653Z" fill="black"/>
<path d="M0.758523 56V47.2727H4.2017C4.8608 47.2727 5.4233 47.3906 5.8892 47.6264C6.35795 47.8594 6.71449 48.1903 6.95881 48.6193C7.20597 49.0455 7.32955 49.5469 7.32955 50.1236C7.32955 50.7031 7.20455 51.2017 6.95455 51.6193C6.70455 52.0341 6.34233 52.3523 5.8679 52.5739C5.39631 52.7955 4.82528 52.9062 4.15483 52.9062H1.84943V51.4233H3.85653C4.20881 51.4233 4.50142 51.375 4.73438 51.2784C4.96733 51.1818 5.14063 51.0369 5.25426 50.8438C5.37074 50.6506 5.42898 50.4105 5.42898 50.1236C5.42898 49.8338 5.37074 49.5895 5.25426 49.3906C5.14063 49.1918 4.96591 49.0412 4.73011 48.9389C4.49716 48.8338 4.20313 48.7812 3.84801 48.7812H2.60369V56H0.758523ZM5.47159 52.0284L7.64062 56H5.60369L3.48153 52.0284H5.47159ZM8.63352 56V47.2727H14.5142V48.794H10.4787V50.8736H14.2116V52.3949H10.4787V54.4787H14.5312V56H8.63352ZM19.2752 52.9659H20.8434L21.6317 53.9801L22.4073 54.8835L23.869 56.7159H22.1474L21.1417 55.4801L20.6261 54.7472L19.2752 52.9659ZM24.0011 51.6364C24.0011 52.5881 23.8207 53.3977 23.4599 54.0653C23.1019 54.733 22.6133 55.2429 21.994 55.5952C21.3775 55.9446 20.6843 56.1193 19.9144 56.1193C19.1388 56.1193 18.4428 55.9432 17.8263 55.5909C17.2099 55.2386 16.7227 54.7287 16.3647 54.0611C16.0067 53.3935 15.8278 52.5852 15.8278 51.6364C15.8278 50.6847 16.0067 49.875 16.3647 49.2074C16.7227 48.5398 17.2099 48.0312 17.8263 47.6818C18.4428 47.3295 19.1388 47.1534 19.9144 47.1534C20.6843 47.1534 21.3775 47.3295 21.994 47.6818C22.6133 48.0312 23.1019 48.5398 23.4599 49.2074C23.8207 49.875 24.0011 50.6847 24.0011 51.6364ZM22.1303 51.6364C22.1303 51.0199 22.038 50.5 21.8533 50.0767C21.6715 49.6534 21.4144 49.3324 21.082 49.1136C20.7496 48.8949 20.3604 48.7855 19.9144 48.7855C19.4684 48.7855 19.0792 48.8949 18.7468 49.1136C18.4144 49.3324 18.1559 49.6534 17.9712 50.0767C17.7894 50.5 17.6985 51.0199 17.6985 51.6364C17.6985 52.2528 17.7894 52.7727 17.9712 53.196C18.1559 53.6193 18.4144 53.9403 18.7468 54.1591C19.0792 54.3778 19.4684 54.4872 19.9144 54.4872C20.3604 54.4872 20.7496 54.3778 21.082 54.1591C21.4144 53.9403 21.6715 53.6193 21.8533 53.196C22.038 52.7727 22.1303 52.2528 22.1303 51.6364ZM29.4119 50.9162V52.3565H25.4318V50.9162H29.4119ZM34.3636 56.1918C33.6307 56.1889 33 56.0085 32.4716 55.6506C31.946 55.2926 31.5412 54.7741 31.2571 54.0952C30.9759 53.4162 30.8366 52.5994 30.8395 51.6449C30.8395 50.6932 30.9801 49.8821 31.2614 49.2116C31.5455 48.5412 31.9503 48.0312 32.4759 47.6818C33.0043 47.3295 33.6335 47.1534 34.3636 47.1534C35.0938 47.1534 35.7216 47.3295 36.2472 47.6818C36.7756 48.0341 37.1818 48.5455 37.4659 49.2159C37.75 49.8835 37.8906 50.6932 37.8878 51.6449C37.8878 52.6023 37.7457 53.4205 37.4616 54.0994C37.1804 54.7784 36.777 55.2969 36.2514 55.6548C35.7259 56.0128 35.0966 56.1918 34.3636 56.1918ZM34.3636 54.6619C34.8636 54.6619 35.2628 54.4105 35.5611 53.9077C35.8594 53.4048 36.0071 52.6506 36.0043 51.6449C36.0043 50.983 35.9361 50.4318 35.7997 49.9915C35.6662 49.5511 35.4759 49.2202 35.2287 48.9986C34.9844 48.777 34.696 48.6662 34.3636 48.6662C33.8665 48.6662 33.4688 48.9148 33.1705 49.4119C32.8722 49.9091 32.7216 50.6534 32.7188 51.6449C32.7188 52.3153 32.7855 52.875 32.919 53.3239C33.0554 53.7699 33.2472 54.1051 33.4943 54.3295C33.7415 54.5511 34.0312 54.6619 34.3636 54.6619ZM43.0004 47.2727V56H41.1552V49.0241H41.104L39.1055 50.277V48.6406L41.266 47.2727H43.0004Z" fill="black"/>
<path d="M0.758523 103V94.2727H4.2017C4.8608 94.2727 5.4233 94.3906 5.8892 94.6264C6.35795 94.8594 6.71449 95.1903 6.95881 95.6193C7.20597 96.0455 7.32955 96.5469 7.32955 97.1236C7.32955 97.7031 7.20455 98.2017 6.95455 98.6193C6.70455 99.0341 6.34233 99.3523 5.8679 99.5739C5.39631 99.7955 4.82528 99.9062 4.15483 99.9062H1.84943V98.4233H3.85653C4.20881 98.4233 4.50142 98.375 4.73438 98.2784C4.96733 98.1818 5.14063 98.0369 5.25426 97.8438C5.37074 97.6506 5.42898 97.4105 5.42898 97.1236C5.42898 96.8338 5.37074 96.5895 5.25426 96.3906C5.14063 96.1918 4.96591 96.0412 4.73011 95.9389C4.49716 95.8338 4.20313 95.7812 3.84801 95.7812H2.60369V103H0.758523ZM5.47159 99.0284L7.64062 103H5.60369L3.48153 99.0284H5.47159ZM8.63352 103V94.2727H14.5142V95.794H10.4787V97.8736H14.2116V99.3949H10.4787V101.479H14.5312V103H8.63352ZM19.2752 99.9659H20.8434L21.6317 100.98L22.4073 101.884L23.869 103.716H22.1474L21.1417 102.48L20.6261 101.747L19.2752 99.9659ZM24.0011 98.6364C24.0011 99.5881 23.8207 100.398 23.4599 101.065C23.1019 101.733 22.6133 102.243 21.994 102.595C21.3775 102.945 20.6843 103.119 19.9144 103.119C19.1388 103.119 18.4428 102.943 17.8263 102.591C17.2099 102.239 16.7227 101.729 16.3647 101.061C16.0067 100.393 15.8278 99.5852 15.8278 98.6364C15.8278 97.6847 16.0067 96.875 16.3647 96.2074C16.7227 95.5398 17.2099 95.0312 17.8263 94.6818C18.4428 94.3295 19.1388 94.1534 19.9144 94.1534C20.6843 94.1534 21.3775 94.3295 21.994 94.6818C22.6133 95.0312 23.1019 95.5398 23.4599 96.2074C23.8207 96.875 24.0011 97.6847 24.0011 98.6364ZM22.1303 98.6364C22.1303 98.0199 22.038 97.5 21.8533 97.0767C21.6715 96.6534 21.4144 96.3324 21.082 96.1136C20.7496 95.8949 20.3604 95.7855 19.9144 95.7855C19.4684 95.7855 19.0792 95.8949 18.7468 96.1136C18.4144 96.3324 18.1559 96.6534 17.9712 97.0767C17.7894 97.5 17.6985 98.0199 17.6985 98.6364C17.6985 99.2528 17.7894 99.7727 17.9712 100.196C18.1559 100.619 18.4144 100.94 18.7468 101.159C19.0792 101.378 19.4684 101.487 19.9144 101.487C20.3604 101.487 20.7496 101.378 21.082 101.159C21.4144 100.94 21.6715 100.619 21.8533 100.196C22.038 99.7727 22.1303 99.2528 22.1303 98.6364ZM29.4119 97.9162V99.3565H25.4318V97.9162H29.4119ZM34.3636 103.192C33.6307 103.189 33 103.009 32.4716 102.651C31.946 102.293 31.5412 101.774 31.2571 101.095C30.9759 100.416 30.8366 99.5994 30.8395 98.6449C30.8395 97.6932 30.9801 96.8821 31.2614 96.2116C31.5455 95.5412 31.9503 95.0312 32.4759 94.6818C33.0043 94.3295 33.6335 94.1534 34.3636 94.1534C35.0938 94.1534 35.7216 94.3295 36.2472 94.6818C36.7756 95.0341 37.1818 95.5455 37.4659 96.2159C37.75 96.8835 37.8906 97.6932 37.8878 98.6449C37.8878 99.6023 37.7457 100.42 37.4616 101.099C37.1804 101.778 36.777 102.297 36.2514 102.655C35.7259 103.013 35.0966 103.192 34.3636 103.192ZM34.3636 101.662C34.8636 101.662 35.2628 101.411 35.5611 100.908C35.8594 100.405 36.0071 99.6506 36.0043 98.6449C36.0043 97.983 35.9361 97.4318 35.7997 96.9915C35.6662 96.5511 35.4759 96.2202 35.2287 95.9986C34.9844 95.777 34.696 95.6662 34.3636 95.6662C33.8665 95.6662 33.4688 95.9148 33.1705 96.4119C32.8722 96.9091 32.7216 97.6534 32.7188 98.6449C32.7188 99.3153 32.7855 99.875 32.919 100.324C33.0554 100.77 33.2472 101.105 33.4943 101.33C33.7415 101.551 34.0312 101.662 34.3636 101.662ZM39.2035 103V101.67L42.31 98.794C42.5742 98.5384 42.7958 98.3082 42.9748 98.1037C43.1566 97.8991 43.2944 97.6989 43.3881 97.5028C43.4819 97.304 43.5288 97.0895 43.5288 96.8594C43.5288 96.6037 43.4705 96.3835 43.354 96.1989C43.2376 96.0114 43.0785 95.8679 42.8768 95.7685C42.6751 95.6662 42.4464 95.6151 42.1907 95.6151C41.9237 95.6151 41.6907 95.669 41.4918 95.777C41.293 95.8849 41.1396 96.0398 41.0316 96.2415C40.9237 96.4432 40.8697 96.6832 40.8697 96.9616H39.1183C39.1183 96.3906 39.2475 95.8949 39.506 95.4744C39.7646 95.054 40.1268 94.7287 40.5927 94.4986C41.0586 94.2685 41.5955 94.1534 42.2035 94.1534C42.8285 94.1534 43.3725 94.2642 43.8356 94.4858C44.3015 94.7045 44.6637 95.0085 44.9222 95.3977C45.1808 95.7869 45.31 96.233 45.31 96.7358C45.31 97.0653 45.2447 97.3906 45.114 97.7116C44.9862 98.0327 44.7575 98.3892 44.4279 98.7812C44.0984 99.1705 43.6339 99.6378 43.0344 100.183L41.7603 101.432V101.491H45.4251V103H39.2035Z" fill="black"/>
<path d="M0.758523 147V138.273H4.2017C4.8608 138.273 5.4233 138.391 5.8892 138.626C6.35795 138.859 6.71449 139.19 6.95881 139.619C7.20597 140.045 7.32955 140.547 7.32955 141.124C7.32955 141.703 7.20455 142.202 6.95455 142.619C6.70455 143.034 6.34233 143.352 5.8679 143.574C5.39631 143.795 4.82528 143.906 4.15483 143.906H1.84943V142.423H3.85653C4.20881 142.423 4.50142 142.375 4.73438 142.278C4.96733 142.182 5.14063 142.037 5.25426 141.844C5.37074 141.651 5.42898 141.411 5.42898 141.124C5.42898 140.834 5.37074 140.589 5.25426 140.391C5.14063 140.192 4.96591 140.041 4.73011 139.939C4.49716 139.834 4.20313 139.781 3.84801 139.781H2.60369V147H0.758523ZM5.47159 143.028L7.64062 147H5.60369L3.48153 143.028H5.47159ZM8.63352 147V138.273H14.5142V139.794H10.4787V141.874H14.2116V143.395H10.4787V145.479H14.5312V147H8.63352ZM19.2752 143.966H20.8434L21.6317 144.98L22.4073 145.884L23.869 147.716H22.1474L21.1417 146.48L20.6261 145.747L19.2752 143.966ZM24.0011 142.636C24.0011 143.588 23.8207 144.398 23.4599 145.065C23.1019 145.733 22.6133 146.243 21.994 146.595C21.3775 146.945 20.6843 147.119 19.9144 147.119C19.1388 147.119 18.4428 146.943 17.8263 146.591C17.2099 146.239 16.7227 145.729 16.3647 145.061C16.0067 144.393 15.8278 143.585 15.8278 142.636C15.8278 141.685 16.0067 140.875 16.3647 140.207C16.7227 139.54 17.2099 139.031 17.8263 138.682C18.4428 138.33 19.1388 138.153 19.9144 138.153C20.6843 138.153 21.3775 138.33 21.994 138.682C22.6133 139.031 23.1019 139.54 23.4599 140.207C23.8207 140.875 24.0011 141.685 24.0011 142.636ZM22.1303 142.636C22.1303 142.02 22.038 141.5 21.8533 141.077C21.6715 140.653 21.4144 140.332 21.082 140.114C20.7496 139.895 20.3604 139.786 19.9144 139.786C19.4684 139.786 19.0792 139.895 18.7468 140.114C18.4144 140.332 18.1559 140.653 17.9712 141.077C17.7894 141.5 17.6985 142.02 17.6985 142.636C17.6985 143.253 17.7894 143.773 17.9712 144.196C18.1559 144.619 18.4144 144.94 18.7468 145.159C19.0792 145.378 19.4684 145.487 19.9144 145.487C20.3604 145.487 20.7496 145.378 21.082 145.159C21.4144 144.94 21.6715 144.619 21.8533 144.196C22.038 143.773 22.1303 143.253 22.1303 142.636ZM29.4119 141.916V143.357H25.4318V141.916H29.4119ZM34.3636 147.192C33.6307 147.189 33 147.009 32.4716 146.651C31.946 146.293 31.5412 145.774 31.2571 145.095C30.9759 144.416 30.8366 143.599 30.8395 142.645C30.8395 141.693 30.9801 140.882 31.2614 140.212C31.5455 139.541 31.9503 139.031 32.4759 138.682C33.0043 138.33 33.6335 138.153 34.3636 138.153C35.0938 138.153 35.7216 138.33 36.2472 138.682C36.7756 139.034 37.1818 139.545 37.4659 140.216C37.75 140.884 37.8906 141.693 37.8878 142.645C37.8878 143.602 37.7457 144.42 37.4616 145.099C37.1804 145.778 36.777 146.297 36.2514 146.655C35.7259 147.013 35.0966 147.192 34.3636 147.192ZM34.3636 145.662C34.8636 145.662 35.2628 145.411 35.5611 144.908C35.8594 144.405 36.0071 143.651 36.0043 142.645C36.0043 141.983 35.9361 141.432 35.7997 140.991C35.6662 140.551 35.4759 140.22 35.2287 139.999C34.9844 139.777 34.696 139.666 34.3636 139.666C33.8665 139.666 33.4688 139.915 33.1705 140.412C32.8722 140.909 32.7216 141.653 32.7188 142.645C32.7188 143.315 32.7855 143.875 32.919 144.324C33.0554 144.77 33.2472 145.105 33.4943 145.33C33.7415 145.551 34.0312 145.662 34.3636 145.662ZM42.4293 147.119C41.793 147.119 41.2262 147.01 40.729 146.791C40.2347 146.57 39.8441 146.266 39.5572 145.879C39.2731 145.49 39.1268 145.041 39.1183 144.533H40.9762C40.9876 144.746 41.0572 144.933 41.185 145.095C41.3157 145.254 41.489 145.378 41.7049 145.466C41.9208 145.554 42.1637 145.598 42.4336 145.598C42.7148 145.598 42.9634 145.548 43.1793 145.449C43.3952 145.349 43.5643 145.212 43.6864 145.036C43.8086 144.859 43.8697 144.656 43.8697 144.426C43.8697 144.193 43.8043 143.987 43.6737 143.808C43.5458 143.626 43.3612 143.484 43.1197 143.382C42.881 143.28 42.5969 143.229 42.2674 143.229H41.4535V141.874H42.2674C42.5458 141.874 42.7915 141.825 43.0046 141.729C43.2205 141.632 43.3881 141.499 43.5075 141.328C43.6268 141.155 43.6864 140.953 43.6864 140.723C43.6864 140.504 43.6339 140.312 43.5288 140.148C43.4265 139.98 43.2816 139.849 43.0941 139.756C42.9094 139.662 42.6935 139.615 42.4464 139.615C42.1964 139.615 41.9677 139.661 41.7603 139.751C41.5529 139.839 41.3867 139.966 41.2617 140.131C41.1367 140.295 41.07 140.489 41.0614 140.71H39.293C39.3015 140.207 39.445 139.764 39.7234 139.381C40.0018 138.997 40.3768 138.697 40.8484 138.482C41.3228 138.263 41.8583 138.153 42.4549 138.153C43.0572 138.153 43.5842 138.263 44.0359 138.482C44.4876 138.7 44.8384 138.996 45.0884 139.368C45.3413 139.737 45.4663 140.152 45.4634 140.612C45.4663 141.101 45.3143 141.509 45.0075 141.835C44.7035 142.162 44.3072 142.369 43.8185 142.457V142.526C44.4606 142.608 44.9492 142.831 45.2844 143.195C45.6225 143.555 45.7901 144.007 45.7873 144.55C45.7901 145.047 45.6467 145.489 45.3569 145.875C45.07 146.261 44.6737 146.565 44.168 146.787C43.6623 147.009 43.0827 147.119 42.4293 147.119Z" fill="black"/>
<path d="M241.634 14H239.657L242.669 5.27273H245.047L248.056 14H246.078L243.892 7.26705H243.824L241.634 14ZM241.51 10.5696H246.181V12.0099H241.51V10.5696ZM256.406 5.27273V14H254.812L251.015 8.5071H250.951V14H249.106V5.27273H250.725L254.493 10.7614H254.569V5.27273H256.406ZM259.435 14H257.457L260.47 5.27273H262.848L265.857 14H263.879L261.693 7.26705H261.625L259.435 14ZM259.311 10.5696H263.982V12.0099H259.311V10.5696ZM266.907 14V5.27273H268.752V12.4787H272.494V14H266.907ZM272.091 5.27273H274.158L276.148 9.03125H276.233L278.223 5.27273H280.29L277.107 10.9148V14H275.274V10.9148L272.091 5.27273ZM286.032 7.78267C285.998 7.43892 285.852 7.17187 285.593 6.98153C285.335 6.79119 284.984 6.69602 284.54 6.69602C284.239 6.69602 283.985 6.73864 283.778 6.82386C283.57 6.90625 283.411 7.02131 283.3 7.16903C283.192 7.31676 283.138 7.48438 283.138 7.67188C283.133 7.82812 283.165 7.96449 283.237 8.08097C283.31 8.19744 283.411 8.2983 283.539 8.38352C283.667 8.46591 283.815 8.53835 283.982 8.60085C284.15 8.66051 284.329 8.71165 284.519 8.75426L285.303 8.94176C285.684 9.02699 286.033 9.14062 286.352 9.28267C286.67 9.42472 286.945 9.59943 287.178 9.80682C287.411 10.0142 287.592 10.2585 287.719 10.5398C287.85 10.821 287.917 11.1435 287.92 11.5071C287.917 12.0412 287.781 12.5043 287.511 12.8963C287.244 13.2855 286.857 13.5881 286.352 13.804C285.849 14.017 285.242 14.1236 284.532 14.1236C283.827 14.1236 283.214 14.0156 282.691 13.7997C282.171 13.5838 281.765 13.2642 281.472 12.8409C281.183 12.4148 281.031 11.8878 281.016 11.2599H282.802C282.822 11.5526 282.906 11.7969 283.053 11.9929C283.204 12.1861 283.404 12.3324 283.654 12.4318C283.907 12.5284 284.192 12.5767 284.511 12.5767C284.823 12.5767 285.094 12.5312 285.325 12.4403C285.558 12.3494 285.738 12.223 285.866 12.0611C285.994 11.8991 286.058 11.7131 286.058 11.5028C286.058 11.3068 285.999 11.142 285.883 11.0085C285.769 10.875 285.602 10.7614 285.38 10.6676C285.161 10.5739 284.893 10.4886 284.575 10.4119L283.624 10.1733C282.888 9.99432 282.308 9.71449 281.881 9.33381C281.455 8.95312 281.244 8.44034 281.246 7.79545C281.244 7.26705 281.384 6.8054 281.668 6.41051C281.955 6.01562 282.349 5.70739 282.849 5.4858C283.349 5.2642 283.917 5.15341 284.553 5.15341C285.201 5.15341 285.766 5.2642 286.249 5.4858C286.735 5.70739 287.113 6.01562 287.383 6.41051C287.653 6.8054 287.792 7.26278 287.8 7.78267H286.032ZM291.006 5.27273V14H289.161V5.27273H291.006ZM297.259 7.78267C297.224 7.43892 297.078 7.17187 296.82 6.98153C296.561 6.79119 296.21 6.69602 295.767 6.69602C295.466 6.69602 295.212 6.73864 295.004 6.82386C294.797 6.90625 294.638 7.02131 294.527 7.16903C294.419 7.31676 294.365 7.48438 294.365 7.67188C294.359 7.82812 294.392 7.96449 294.463 8.08097C294.537 8.19744 294.638 8.2983 294.766 8.38352C294.893 8.46591 295.041 8.53835 295.209 8.60085C295.376 8.66051 295.555 8.71165 295.746 8.75426L296.53 8.94176C296.911 9.02699 297.26 9.14062 297.578 9.28267C297.896 9.42472 298.172 9.59943 298.405 9.80682C298.638 10.0142 298.818 10.2585 298.946 10.5398C299.077 10.821 299.143 11.1435 299.146 11.5071C299.143 12.0412 299.007 12.5043 298.737 12.8963C298.47 13.2855 298.084 13.5881 297.578 13.804C297.075 14.017 296.469 14.1236 295.759 14.1236C295.054 14.1236 294.44 14.0156 293.918 13.7997C293.398 13.5838 292.991 13.2642 292.699 12.8409C292.409 12.4148 292.257 11.8878 292.243 11.2599H294.028C294.048 11.5526 294.132 11.7969 294.28 11.9929C294.43 12.1861 294.631 12.3324 294.881 12.4318C295.134 12.5284 295.419 12.5767 295.737 12.5767C296.05 12.5767 296.321 12.5312 296.551 12.4403C296.784 12.3494 296.964 12.223 297.092 12.0611C297.22 11.8991 297.284 11.7131 297.284 11.5028C297.284 11.3068 297.226 11.142 297.109 11.0085C296.996 10.875 296.828 10.7614 296.607 10.6676C296.388 10.5739 296.119 10.4886 295.801 10.4119L294.851 10.1733C294.115 9.99432 293.534 9.71449 293.108 9.33381C292.682 8.95312 292.47 8.44034 292.473 7.79545C292.47 7.26705 292.611 6.8054 292.895 6.41051C293.182 6.01562 293.575 5.70739 294.075 5.4858C294.575 5.2642 295.143 5.15341 295.78 5.15341C296.428 5.15341 296.993 5.2642 297.476 5.4858C297.962 5.70739 298.339 6.01562 298.609 6.41051C298.879 6.8054 299.018 7.26278 299.027 7.78267H297.259Z" fill="black"/>
<path d="M368.194 5.27273V14H366.348V5.27273H368.194ZM377.011 5.27273V14H375.418L371.621 8.5071H371.557V14H369.712V5.27273H371.331L375.098 10.7614H375.175V5.27273H377.011ZM383.27 7.78267C383.236 7.43892 383.09 7.17187 382.831 6.98153C382.573 6.79119 382.222 6.69602 381.779 6.69602C381.478 6.69602 381.223 6.73864 381.016 6.82386C380.809 6.90625 380.65 7.02131 380.539 7.16903C380.431 7.31676 380.377 7.48438 380.377 7.67188C380.371 7.82812 380.404 7.96449 380.475 8.08097C380.549 8.19744 380.65 8.2983 380.777 8.38352C380.905 8.46591 381.053 8.53835 381.221 8.60085C381.388 8.66051 381.567 8.71165 381.757 8.75426L382.542 8.94176C382.922 9.02699 383.272 9.14062 383.59 9.28267C383.908 9.42472 384.184 9.59943 384.417 9.80682C384.65 10.0142 384.83 10.2585 384.958 10.5398C385.088 10.821 385.155 11.1435 385.158 11.5071C385.155 12.0412 385.019 12.5043 384.749 12.8963C384.482 13.2855 384.096 13.5881 383.59 13.804C383.087 14.017 382.48 14.1236 381.77 14.1236C381.066 14.1236 380.452 14.0156 379.929 13.7997C379.409 13.5838 379.003 13.2642 378.711 12.8409C378.421 12.4148 378.269 11.8878 378.255 11.2599H380.04C380.06 11.5526 380.144 11.7969 380.292 11.9929C380.442 12.1861 380.642 12.3324 380.892 12.4318C381.145 12.5284 381.431 12.5767 381.749 12.5767C382.061 12.5767 382.333 12.5312 382.563 12.4403C382.796 12.3494 382.976 12.223 383.104 12.0611C383.232 11.8991 383.296 11.7131 383.296 11.5028C383.296 11.3068 383.238 11.142 383.121 11.0085C383.007 10.875 382.84 10.7614 382.618 10.6676C382.4 10.5739 382.131 10.4886 381.813 10.4119L380.863 10.1733C380.127 9.99432 379.546 9.71449 379.12 9.33381C378.694 8.95312 378.482 8.44034 378.485 7.79545C378.482 7.26705 378.623 6.8054 378.907 6.41051C379.194 6.01562 379.587 5.70739 380.087 5.4858C380.587 5.2642 381.155 5.15341 381.792 5.15341C382.439 5.15341 383.005 5.2642 383.488 5.4858C383.973 5.70739 384.351 6.01562 384.621 6.41051C384.891 6.8054 385.03 7.26278 385.039 7.78267H383.27ZM386.399 14V5.27273H389.842C390.504 5.27273 391.068 5.39915 391.534 5.65199C392 5.90199 392.355 6.25 392.599 6.69602C392.847 7.1392 392.97 7.65057 392.97 8.23011C392.97 8.80966 392.845 9.32102 392.595 9.7642C392.345 10.2074 391.983 10.5526 391.509 10.7997C391.037 11.0469 390.466 11.1705 389.795 11.1705H387.601V9.69176H389.497C389.852 9.69176 390.145 9.63068 390.375 9.50852C390.608 9.38352 390.781 9.21165 390.895 8.9929C391.011 8.77131 391.07 8.51705 391.07 8.23011C391.07 7.94034 391.011 7.6875 390.895 7.47159C390.781 7.25284 390.608 7.08381 390.375 6.96449C390.142 6.84233 389.847 6.78125 389.489 6.78125H388.244V14H386.399Z" fill="#111321"/>
<path d="M487.63 14H484.536V5.27273H487.655C488.533 5.27273 489.289 5.44744 489.922 5.79688C490.556 6.14347 491.043 6.64205 491.384 7.29261C491.728 7.94318 491.9 8.72159 491.9 9.62784C491.9 10.5369 491.728 11.3182 491.384 11.9716C491.043 12.625 490.553 13.1264 489.914 13.4759C489.277 13.8253 488.516 14 487.63 14ZM486.381 12.419H487.553C488.098 12.419 488.557 12.3224 488.929 12.1293C489.304 11.9332 489.586 11.6307 489.773 11.2216C489.963 10.8097 490.059 10.2784 490.059 9.62784C490.059 8.98295 489.963 8.45597 489.773 8.04688C489.586 7.63778 489.306 7.33665 488.934 7.14347C488.561 6.95028 488.103 6.85369 487.557 6.85369H486.381V12.419ZM493.266 14V5.27273H499.147V6.79403H495.112V8.87358H498.844V10.3949H495.112V12.4787H499.164V14H493.266ZM500.614 5.27273H502.89L505.293 11.1364H505.395L507.799 5.27273H510.074V14H508.284V8.3196H508.212L505.953 13.9574H504.735L502.476 8.2983H502.404V14H500.614V5.27273ZM519.614 9.63636C519.614 10.5881 519.434 11.3977 519.073 12.0653C518.715 12.733 518.227 13.2429 517.607 13.5952C516.991 13.9446 516.298 14.1193 515.528 14.1193C514.752 14.1193 514.056 13.9432 513.44 13.5909C512.823 13.2386 512.336 12.7287 511.978 12.0611C511.62 11.3935 511.441 10.5852 511.441 9.63636C511.441 8.68466 511.62 7.875 511.978 7.20739C512.336 6.53977 512.823 6.03125 513.44 5.68182C514.056 5.32955 514.752 5.15341 515.528 5.15341C516.298 5.15341 516.991 5.32955 517.607 5.68182C518.227 6.03125 518.715 6.53977 519.073 7.20739C519.434 7.875 519.614 8.68466 519.614 9.63636ZM517.744 9.63636C517.744 9.01989 517.651 8.5 517.467 8.0767C517.285 7.65341 517.028 7.33239 516.695 7.11364C516.363 6.89489 515.974 6.78551 515.528 6.78551C515.082 6.78551 514.692 6.89489 514.36 7.11364C514.028 7.33239 513.769 7.65341 513.585 8.0767C513.403 8.5 513.312 9.01989 513.312 9.63636C513.312 10.2528 513.403 10.7727 513.585 11.196C513.769 11.6193 514.028 11.9403 514.36 12.1591C514.692 12.3778 515.082 12.4872 515.528 12.4872C515.974 12.4872 516.363 12.3778 516.695 12.1591C517.028 11.9403 517.285 11.6193 517.467 11.196C517.651 10.7727 517.744 10.2528 517.744 9.63636Z" fill="#111321"/>
</svg>
