<svg width="385" height="76" viewBox="0 0 385 76" fill="none" xmlns="http://www.w3.org/2000/svg">
<path d="M0.758523 33.2727H3.03409L5.4375 39.1364H5.53977L7.94318 33.2727H10.2188V42H8.42898V36.3196H8.35653L6.09801 41.9574H4.87926L2.62074 36.2983H2.5483V42H0.758523V33.2727ZM13.5714 42.1236C13.1538 42.1236 12.7816 42.0511 12.4549 41.9062C12.1282 41.7585 11.8697 41.5412 11.6793 41.2543C11.4918 40.9645 11.3981 40.6037 11.3981 40.1719C11.3981 39.8082 11.4648 39.5028 11.5984 39.2557C11.7319 39.0085 11.9137 38.8097 12.1438 38.6591C12.3739 38.5085 12.6353 38.3949 12.9279 38.3182C13.2234 38.2415 13.533 38.1875 13.8569 38.1562C14.2376 38.1165 14.5444 38.0795 14.7773 38.0455C15.0103 38.0085 15.1793 37.9545 15.2844 37.8835C15.3896 37.8125 15.4421 37.7074 15.4421 37.5682V37.5426C15.4421 37.2727 15.3569 37.0639 15.1864 36.9162C15.0188 36.7685 14.7802 36.6946 14.4705 36.6946C14.1438 36.6946 13.8839 36.767 13.6907 36.9119C13.4975 37.054 13.3697 37.233 13.3072 37.4489L11.6282 37.3125C11.7134 36.9148 11.881 36.571 12.131 36.2812C12.381 35.9886 12.7035 35.7642 13.0984 35.608C13.4961 35.4489 13.9563 35.3693 14.479 35.3693C14.8427 35.3693 15.1907 35.4119 15.5231 35.4972C15.8583 35.5824 16.1552 35.7145 16.4137 35.8935C16.6751 36.0724 16.881 36.3026 17.0316 36.5838C17.1822 36.8622 17.2575 37.196 17.2575 37.5852V42H15.5359V41.0923H15.4847C15.3796 41.2969 15.239 41.4773 15.0629 41.6335C14.8867 41.7869 14.6751 41.9077 14.4279 41.9957C14.1808 42.081 13.8952 42.1236 13.5714 42.1236ZM14.0913 40.8707C14.3583 40.8707 14.5941 40.8182 14.7987 40.7131C15.0032 40.6051 15.1637 40.4602 15.2802 40.2784C15.3967 40.0966 15.4549 39.8906 15.4549 39.6605V38.9659C15.3981 39.0028 15.32 39.0369 15.2205 39.0682C15.1239 39.0966 15.0146 39.1236 14.8924 39.1491C14.7702 39.1719 14.6481 39.1932 14.5259 39.2131C14.4038 39.2301 14.293 39.2457 14.1935 39.2599C13.9805 39.2912 13.7944 39.3409 13.6353 39.4091C13.4762 39.4773 13.3526 39.5696 13.2646 39.6861C13.1765 39.7997 13.1325 39.9418 13.1325 40.1122C13.1325 40.3594 13.2219 40.5483 13.4009 40.679C13.5827 40.8068 13.8129 40.8707 14.0913 40.8707ZM24.1119 37.321L22.4499 37.4233C22.4215 37.2812 22.3604 37.1534 22.2667 37.0398C22.1729 36.9233 22.0494 36.831 21.896 36.7628C21.7454 36.6918 21.565 36.6562 21.3548 36.6562C21.0735 36.6562 20.8363 36.7159 20.6431 36.8352C20.4499 36.9517 20.3533 37.108 20.3533 37.304C20.3533 37.4602 20.4158 37.5923 20.5408 37.7003C20.6658 37.8082 20.8803 37.8949 21.1843 37.9602L22.369 38.1989C23.0053 38.3295 23.4798 38.5398 23.7923 38.8295C24.1048 39.1193 24.261 39.5 24.261 39.9716C24.261 40.4006 24.1346 40.777 23.8817 41.1009C23.6317 41.4247 23.288 41.6776 22.8505 41.8594C22.4158 42.0384 21.9144 42.1278 21.3462 42.1278C20.4798 42.1278 19.7894 41.9474 19.2752 41.5866C18.7638 41.223 18.4641 40.7287 18.3761 40.1037L20.1616 40.0099C20.2156 40.2741 20.3462 40.4759 20.5536 40.6151C20.761 40.7514 21.0266 40.8196 21.3505 40.8196C21.6687 40.8196 21.9244 40.7585 22.1175 40.6364C22.3136 40.5114 22.413 40.3509 22.4158 40.1548C22.413 39.9901 22.3434 39.8551 22.207 39.75C22.0707 39.642 21.8604 39.5597 21.5763 39.5028L20.4428 39.277C19.8036 39.1491 19.3278 38.9276 19.0153 38.6122C18.7056 38.2969 18.5508 37.8949 18.5508 37.4062C18.5508 36.9858 18.6644 36.6236 18.8917 36.3196C19.1218 36.0156 19.4442 35.7812 19.859 35.6165C20.2766 35.4517 20.7653 35.3693 21.3249 35.3693C22.1516 35.3693 22.8022 35.544 23.2766 35.8935C23.7539 36.2429 24.0323 36.7187 24.1119 37.321ZM28.8857 35.4545V36.8182H24.9439V35.4545H28.8857ZM25.8388 33.8864H27.6541V39.9886C27.6541 40.1562 27.6797 40.2869 27.7308 40.3807C27.782 40.4716 27.853 40.5355 27.9439 40.5724C28.0376 40.6094 28.1456 40.6278 28.2678 40.6278C28.353 40.6278 28.4382 40.6207 28.5234 40.6065C28.6087 40.5895 28.674 40.5767 28.7195 40.5682L29.005 41.919C28.9141 41.9474 28.7862 41.9801 28.6214 42.017C28.4567 42.0568 28.2564 42.081 28.0206 42.0895C27.5831 42.1065 27.1996 42.0483 26.87 41.9148C26.5433 41.7812 26.2891 41.5739 26.1072 41.2926C25.9254 41.0114 25.8359 40.6562 25.8388 40.2273V33.8864ZM32.9808 42.1278C32.3075 42.1278 31.728 41.9915 31.2422 41.7188C30.7592 41.4432 30.3871 41.054 30.1257 40.5511C29.8643 40.0455 29.7337 39.4474 29.7337 38.7571C29.7337 38.0838 29.8643 37.4929 30.1257 36.9844C30.3871 36.4759 30.755 36.0795 31.2294 35.7955C31.7067 35.5114 32.2663 35.3693 32.9084 35.3693C33.3402 35.3693 33.7422 35.4389 34.1143 35.5781C34.4893 35.7145 34.8161 35.9205 35.0945 36.196C35.3757 36.4716 35.5945 36.8182 35.7507 37.2358C35.907 37.6506 35.9851 38.1364 35.9851 38.6932V39.1918H30.4581V38.0668H34.2763C34.2763 37.8054 34.2195 37.5739 34.1058 37.3722C33.9922 37.1705 33.8345 37.0128 33.6328 36.8991C33.4339 36.7827 33.2024 36.7244 32.9382 36.7244C32.6626 36.7244 32.4183 36.7884 32.2053 36.9162C31.995 37.0412 31.8303 37.2102 31.7109 37.4233C31.5916 37.6335 31.5305 37.8679 31.5277 38.1264V39.196C31.5277 39.5199 31.5874 39.7997 31.7067 40.0355C31.8288 40.2713 32.0007 40.4531 32.2223 40.581C32.4439 40.7088 32.7067 40.7727 33.0107 40.7727C33.2124 40.7727 33.397 40.7443 33.5646 40.6875C33.7322 40.6307 33.8757 40.5455 33.995 40.4318C34.1143 40.3182 34.2053 40.179 34.2678 40.0142L35.9467 40.125C35.8615 40.5284 35.6868 40.8807 35.4226 41.1818C35.1612 41.4801 34.8232 41.7131 34.4084 41.8807C33.9964 42.0455 33.5206 42.1278 32.9808 42.1278ZM37.1697 42V35.4545H38.9297V36.5966H38.9979C39.1172 36.1903 39.3175 35.8835 39.5987 35.6761C39.88 35.4659 40.2038 35.3608 40.5703 35.3608C40.6612 35.3608 40.7592 35.3665 40.8643 35.3778C40.9695 35.3892 41.0618 35.4048 41.1413 35.4247V37.0355C41.0561 37.0099 40.9382 36.9872 40.7876 36.9673C40.6371 36.9474 40.4993 36.9375 40.3743 36.9375C40.1072 36.9375 39.8686 36.9957 39.6584 37.1122C39.451 37.2259 39.2862 37.3849 39.1641 37.5895C39.0447 37.794 38.9851 38.0298 38.9851 38.2969V42H37.1697ZM44.8913 42V33.2727H48.3345C48.9936 33.2727 49.5561 33.3906 50.022 33.6264C50.4908 33.8594 50.8473 34.1903 51.0916 34.6193C51.3388 35.0455 51.4624 35.5469 51.4624 36.1236C51.4624 36.7031 51.3374 37.2017 51.0874 37.6193C50.8374 38.0341 50.4751 38.3523 50.0007 38.5739C49.5291 38.7955 48.9581 38.9062 48.2876 38.9062H45.9822V37.4233H47.9893C48.3416 37.4233 48.6342 37.375 48.8672 37.2784C49.1001 37.1818 49.2734 37.0369 49.3871 36.8438C49.5036 36.6506 49.5618 36.4105 49.5618 36.1236C49.5618 35.8338 49.5036 35.5895 49.3871 35.3906C49.2734 35.1918 49.0987 35.0412 48.8629 34.9389C48.63 34.8338 48.3359 34.7812 47.9808 34.7812H46.7365V42H44.8913ZM49.6044 38.0284L51.7734 42H49.7365L47.6143 38.0284H49.6044ZM52.7663 42V33.2727H58.647V34.794H54.6115V36.8736H58.3445V38.3949H54.6115V40.4787H58.6641V42H52.7663ZM63.408 38.9659H64.9762L65.7646 39.9801L66.5401 40.8835L68.0018 42.7159H66.2802L65.2745 41.4801L64.7589 40.7472L63.408 38.9659ZM68.1339 37.6364C68.1339 38.5881 67.9535 39.3977 67.5927 40.0653C67.2347 40.733 66.7461 41.2429 66.1268 41.5952C65.5103 41.9446 64.8171 42.1193 64.0472 42.1193C63.2717 42.1193 62.5756 41.9432 61.9592 41.5909C61.3427 41.2386 60.8555 40.7287 60.4975 40.0611C60.1396 39.3935 59.9606 38.5852 59.9606 37.6364C59.9606 36.6847 60.1396 35.875 60.4975 35.2074C60.8555 34.5398 61.3427 34.0312 61.9592 33.6818C62.5756 33.3295 63.2717 33.1534 64.0472 33.1534C64.8171 33.1534 65.5103 33.3295 66.1268 33.6818C66.7461 34.0312 67.2347 34.5398 67.5927 35.2074C67.9535 35.875 68.1339 36.6847 68.1339 37.6364ZM66.2631 37.6364C66.2631 37.0199 66.1708 36.5 65.9862 36.0767C65.8043 35.6534 65.5472 35.3324 65.2148 35.1136C64.8825 34.8949 64.4933 34.7855 64.0472 34.7855C63.6012 34.7855 63.212 34.8949 62.8796 35.1136C62.5472 35.3324 62.2887 35.6534 62.104 36.0767C61.9222 36.5 61.8313 37.0199 61.8313 37.6364C61.8313 38.2528 61.9222 38.7727 62.104 39.196C62.2887 39.6193 62.5472 39.9403 62.8796 40.1591C63.212 40.3778 63.6012 40.4872 64.0472 40.4872C64.4933 40.4872 64.8825 40.3778 65.2148 40.1591C65.5472 39.9403 65.8043 39.6193 65.9862 39.196C66.1708 38.7727 66.2631 38.2528 66.2631 37.6364Z" fill="black"/>
<path d="M3.66477 62.1364C3.03409 62.1364 2.49006 61.9972 2.03267 61.7188C1.57812 61.4375 1.22727 61.0455 0.980114 60.5426C0.735795 60.0369 0.613636 59.4489 0.613636 58.7784C0.613636 58.108 0.735795 57.517 0.980114 57.0057C1.22727 56.4915 1.57102 56.0909 2.01136 55.804C2.45455 55.5142 2.97159 55.3693 3.5625 55.3693C3.90341 55.3693 4.24006 55.4261 4.57244 55.5398C4.90483 55.6534 5.20739 55.8381 5.48011 56.0938C5.75284 56.3466 5.97017 56.6818 6.1321 57.0994C6.29403 57.517 6.375 58.0312 6.375 58.642V59.0682H1.32955V58.1989H5.35227C5.35227 57.8295 5.27841 57.5 5.13068 57.2102C4.9858 56.9205 4.77841 56.6918 4.50852 56.5241C4.24148 56.3565 3.92614 56.2727 3.5625 56.2727C3.16193 56.2727 2.81534 56.3722 2.52273 56.571C2.23295 56.767 2.00994 57.0227 1.85369 57.3381C1.69744 57.6534 1.61932 57.9915 1.61932 58.3523V58.9318C1.61932 59.4261 1.70455 59.8452 1.875 60.1889C2.0483 60.5298 2.28835 60.7898 2.59517 60.9688C2.90199 61.1449 3.25852 61.233 3.66477 61.233C3.92898 61.233 4.16761 61.196 4.38068 61.1222C4.59659 61.0455 4.78267 60.9318 4.93892 60.7812C5.09517 60.6278 5.21591 60.4375 5.30114 60.2102L6.27273 60.483C6.17045 60.8125 5.99858 61.1023 5.7571 61.3523C5.51563 61.5994 5.21733 61.7926 4.86222 61.9318C4.5071 62.0682 4.10795 62.1364 3.66477 62.1364ZM10.3764 62.1364C9.83097 62.1364 9.34943 61.9986 8.93182 61.723C8.5142 61.4446 8.1875 61.0526 7.9517 60.5469C7.71591 60.0384 7.59801 59.4375 7.59801 58.7443C7.59801 58.0568 7.71591 57.4602 7.9517 56.9545C8.1875 56.4489 8.51563 56.0582 8.93608 55.7827C9.35653 55.5071 9.84233 55.3693 10.3935 55.3693C10.8196 55.3693 11.1563 55.4403 11.4034 55.5824C11.6534 55.7216 11.8438 55.8807 11.9744 56.0597C12.108 56.2358 12.2116 56.3807 12.2855 56.4943H12.3707V53.2727H13.3764V62H12.4048V60.9943H12.2855C12.2116 61.1136 12.1065 61.2642 11.9702 61.446C11.8338 61.625 11.6392 61.7855 11.3864 61.9276C11.1335 62.0668 10.7969 62.1364 10.3764 62.1364ZM10.5128 61.233C10.9162 61.233 11.2571 61.1278 11.5355 60.9176C11.8139 60.7045 12.0256 60.4105 12.1705 60.0355C12.3153 59.6577 12.3878 59.2216 12.3878 58.7273C12.3878 58.2386 12.3168 57.8111 12.1747 57.4446C12.0327 57.0753 11.8224 56.7884 11.544 56.5838C11.2656 56.3764 10.9219 56.2727 10.5128 56.2727C10.0866 56.2727 9.73153 56.3821 9.44744 56.6009C9.16619 56.8168 8.95455 57.1108 8.8125 57.483C8.6733 57.8523 8.60369 58.267 8.60369 58.7273C8.60369 59.1932 8.67472 59.6165 8.81676 59.9972C8.96165 60.375 9.17472 60.6761 9.45597 60.9006C9.74006 61.1222 10.0923 61.233 10.5128 61.233ZM15.358 62V55.4545H16.3636V62H15.358ZM15.8693 54.3636C15.6733 54.3636 15.5043 54.2969 15.3622 54.1634C15.223 54.0298 15.1534 53.8693 15.1534 53.6818C15.1534 53.4943 15.223 53.3338 15.3622 53.2003C15.5043 53.0668 15.6733 53 15.8693 53C16.0653 53 16.233 53.0668 16.3722 53.2003C16.5142 53.3338 16.5852 53.4943 16.5852 53.6818C16.5852 53.8693 16.5142 54.0298 16.3722 54.1634C16.233 54.2969 16.0653 54.3636 15.8693 54.3636ZM21.0522 55.4545V56.3068H17.6602V55.4545H21.0522ZM18.6488 53.8864H19.6545V60.125C19.6545 60.4091 19.6957 60.6222 19.7781 60.7642C19.8633 60.9034 19.9712 60.9972 20.1019 61.0455C20.2354 61.0909 20.3761 61.1136 20.5238 61.1136C20.6346 61.1136 20.7255 61.108 20.7965 61.0966C20.8675 61.0824 20.9244 61.071 20.967 61.0625L21.1715 61.9659C21.1033 61.9915 21.0082 62.017 20.886 62.0426C20.7638 62.071 20.609 62.0852 20.4215 62.0852C20.1374 62.0852 19.859 62.0241 19.5863 61.902C19.3164 61.7798 19.092 61.5938 18.913 61.3438C18.7369 61.0938 18.6488 60.7784 18.6488 60.3977V53.8864ZM25.239 62.1364C24.6083 62.1364 24.0643 61.9972 23.6069 61.7188C23.1523 61.4375 22.8015 61.0455 22.5543 60.5426C22.31 60.0369 22.1879 59.4489 22.1879 58.7784C22.1879 58.108 22.31 57.517 22.5543 57.0057C22.8015 56.4915 23.1452 56.0909 23.5856 55.804C24.0288 55.5142 24.5458 55.3693 25.1367 55.3693C25.4776 55.3693 25.8143 55.4261 26.1467 55.5398C26.479 55.6534 26.7816 55.8381 27.0543 56.0938C27.3271 56.3466 27.5444 56.6818 27.7063 57.0994C27.8683 57.517 27.9492 58.0312 27.9492 58.642V59.0682H22.9038V58.1989H26.9265C26.9265 57.8295 26.8526 57.5 26.7049 57.2102C26.56 56.9205 26.3526 56.6918 26.0827 56.5241C25.8157 56.3565 25.5004 56.2727 25.1367 56.2727C24.7362 56.2727 24.3896 56.3722 24.0969 56.571C23.8072 56.767 23.5842 57.0227 23.4279 57.3381C23.2717 57.6534 23.1935 57.9915 23.1935 58.3523V58.9318C23.1935 59.4261 23.2788 59.8452 23.4492 60.1889C23.6225 60.5298 23.8626 60.7898 24.1694 60.9688C24.4762 61.1449 24.8327 61.233 25.239 61.233C25.5032 61.233 25.7418 61.196 25.9549 61.1222C26.1708 61.0455 26.3569 60.9318 26.5131 60.7812C26.6694 60.6278 26.7901 60.4375 26.8754 60.2102L27.8469 60.483C27.7447 60.8125 27.5728 61.1023 27.3313 61.3523C27.0898 61.5994 26.7915 61.7926 26.4364 61.9318C26.0813 62.0682 25.6822 62.1364 25.239 62.1364ZM31.9506 62.1364C31.4052 62.1364 30.9237 61.9986 30.506 61.723C30.0884 61.4446 29.7617 61.0526 29.5259 60.5469C29.2901 60.0384 29.1722 59.4375 29.1722 58.7443C29.1722 58.0568 29.2901 57.4602 29.5259 56.9545C29.7617 56.4489 30.0898 56.0582 30.5103 55.7827C30.9308 55.5071 31.4165 55.3693 31.9677 55.3693C32.3938 55.3693 32.7305 55.4403 32.9776 55.5824C33.2276 55.7216 33.418 55.8807 33.5487 56.0597C33.6822 56.2358 33.7859 56.3807 33.8597 56.4943H33.945V53.2727H34.9506V62H33.979V60.9943H33.8597C33.7859 61.1136 33.6808 61.2642 33.5444 61.446C33.408 61.625 33.2134 61.7855 32.9606 61.9276C32.7077 62.0668 32.3711 62.1364 31.9506 62.1364ZM32.087 61.233C32.4904 61.233 32.8313 61.1278 33.1097 60.9176C33.3881 60.7045 33.5998 60.4105 33.7447 60.0355C33.8896 59.6577 33.962 59.2216 33.962 58.7273C33.962 58.2386 33.891 57.8111 33.7489 57.4446C33.6069 57.0753 33.3967 56.7884 33.1183 56.5838C32.8398 56.3764 32.4961 56.2727 32.087 56.2727C31.6609 56.2727 31.3058 56.3821 31.0217 56.6009C30.7404 56.8168 30.5288 57.1108 30.3867 57.483C30.2475 57.8523 30.1779 58.267 30.1779 58.7273C30.1779 59.1932 30.2489 59.6165 30.391 59.9972C30.5359 60.375 30.7489 60.6761 31.0302 60.9006C31.3143 61.1222 31.6665 61.233 32.087 61.233Z" fill="black"/>
<path d="M285.759 14V5.27273H291.537V6.79403H287.604V8.87358H291.153V10.3949H287.604V14H285.759ZM295.221 14.1278C294.559 14.1278 293.987 13.9872 293.504 13.706C293.023 13.4219 292.653 13.027 292.391 12.5213C292.13 12.0128 291.999 11.4233 291.999 10.7528C291.999 10.0767 292.13 9.4858 292.391 8.98011C292.653 8.47159 293.023 8.0767 293.504 7.79545C293.987 7.51136 294.559 7.36932 295.221 7.36932C295.883 7.36932 296.454 7.51136 296.934 7.79545C297.417 8.0767 297.789 8.47159 298.05 8.98011C298.312 9.4858 298.442 10.0767 298.442 10.7528C298.442 11.4233 298.312 12.0128 298.05 12.5213C297.789 13.027 297.417 13.4219 296.934 13.706C296.454 13.9872 295.883 14.1278 295.221 14.1278ZM295.229 12.7216C295.531 12.7216 295.782 12.6364 295.984 12.4659C296.185 12.2926 296.337 12.0568 296.44 11.7585C296.545 11.4602 296.597 11.1207 296.597 10.7401C296.597 10.3594 296.545 10.0199 296.44 9.72159C296.337 9.4233 296.185 9.1875 295.984 9.0142C295.782 8.84091 295.531 8.75426 295.229 8.75426C294.925 8.75426 294.67 8.84091 294.462 9.0142C294.258 9.1875 294.103 9.4233 293.998 9.72159C293.896 10.0199 293.844 10.3594 293.844 10.7401C293.844 11.1207 293.896 11.4602 293.998 11.7585C294.103 12.0568 294.258 12.2926 294.462 12.4659C294.67 12.6364 294.925 12.7216 295.229 12.7216ZM301.438 5.27273V14H299.623V5.27273H301.438ZM304.708 5.27273V14H302.892V5.27273H304.708ZM309.119 14.1278C308.457 14.1278 307.885 13.9872 307.402 13.706C306.922 13.4219 306.551 13.027 306.29 12.5213C306.028 12.0128 305.898 11.4233 305.898 10.7528C305.898 10.0767 306.028 9.4858 306.29 8.98011C306.551 8.47159 306.922 8.0767 307.402 7.79545C307.885 7.51136 308.457 7.36932 309.119 7.36932C309.781 7.36932 310.352 7.51136 310.832 7.79545C311.315 8.0767 311.688 8.47159 311.949 8.98011C312.21 9.4858 312.341 10.0767 312.341 10.7528C312.341 11.4233 312.21 12.0128 311.949 12.5213C311.688 13.027 311.315 13.4219 310.832 13.706C310.352 13.9872 309.781 14.1278 309.119 14.1278ZM309.128 12.7216C309.429 12.7216 309.68 12.6364 309.882 12.4659C310.084 12.2926 310.236 12.0568 310.338 11.7585C310.443 11.4602 310.496 11.1207 310.496 10.7401C310.496 10.3594 310.443 10.0199 310.338 9.72159C310.236 9.4233 310.084 9.1875 309.882 9.0142C309.68 8.84091 309.429 8.75426 309.128 8.75426C308.824 8.75426 308.568 8.84091 308.361 9.0142C308.156 9.1875 308.001 9.4233 307.896 9.72159C307.794 10.0199 307.743 10.3594 307.743 10.7401C307.743 11.1207 307.794 11.4602 307.896 11.7585C308.001 12.0568 308.156 12.2926 308.361 12.4659C308.568 12.6364 308.824 12.7216 309.128 12.7216ZM314.648 14L312.867 7.45455H314.704L315.718 11.8523H315.778L316.835 7.45455H318.637L319.711 11.8267H319.766L320.763 7.45455H322.596L320.819 14H318.897L317.772 9.88352H317.691L316.566 14H314.648ZM326.383 14.1278C325.71 14.1278 325.13 13.9915 324.645 13.7188C324.162 13.4432 323.789 13.054 323.528 12.5511C323.267 12.0455 323.136 11.4474 323.136 10.7571C323.136 10.0838 323.267 9.4929 323.528 8.98438C323.789 8.47585 324.157 8.07955 324.632 7.79545C325.109 7.51136 325.669 7.36932 326.311 7.36932C326.743 7.36932 327.145 7.43892 327.517 7.57812C327.892 7.71449 328.218 7.92045 328.497 8.19602C328.778 8.47159 328.997 8.81818 329.153 9.2358C329.309 9.65057 329.387 10.1364 329.387 10.6932V11.1918H323.86V10.0668H327.679C327.679 9.8054 327.622 9.57386 327.508 9.37216C327.395 9.17045 327.237 9.01278 327.035 8.89915C326.836 8.78267 326.605 8.72443 326.341 8.72443C326.065 8.72443 325.821 8.78835 325.608 8.91619C325.397 9.04119 325.233 9.21023 325.113 9.4233C324.994 9.63352 324.933 9.8679 324.93 10.1264V11.196C324.93 11.5199 324.99 11.7997 325.109 12.0355C325.231 12.2713 325.403 12.4531 325.625 12.581C325.846 12.7088 326.109 12.7727 326.413 12.7727C326.615 12.7727 326.799 12.7443 326.967 12.6875C327.135 12.6307 327.278 12.5455 327.397 12.4318C327.517 12.3182 327.608 12.179 327.67 12.0142L329.349 12.125C329.264 12.5284 329.089 12.8807 328.825 13.1818C328.564 13.4801 328.225 13.7131 327.811 13.8807C327.399 14.0455 326.923 14.1278 326.383 14.1278ZM330.572 14V7.45455H332.332V8.59659H332.4C332.52 8.19034 332.72 7.88352 333.001 7.67614C333.282 7.46591 333.606 7.3608 333.973 7.3608C334.064 7.3608 334.162 7.36648 334.267 7.37784C334.372 7.3892 334.464 7.40483 334.544 7.42472V9.03551C334.458 9.00994 334.341 8.98722 334.19 8.96733C334.039 8.94744 333.902 8.9375 333.777 8.9375C333.51 8.9375 333.271 8.99574 333.061 9.11222C332.853 9.22585 332.689 9.38494 332.566 9.58949C332.447 9.79403 332.387 10.0298 332.387 10.2969V14H330.572ZM338.294 14V5.27273H341.737C342.396 5.27273 342.958 5.39062 343.424 5.62642C343.893 5.85937 344.25 6.19034 344.494 6.61932C344.741 7.04545 344.865 7.54687 344.865 8.12358C344.865 8.70312 344.74 9.2017 344.49 9.61932C344.24 10.0341 343.877 10.3523 343.403 10.5739C342.931 10.7955 342.36 10.9062 341.69 10.9062H339.385V9.4233H341.392C341.744 9.4233 342.037 9.375 342.27 9.27841C342.502 9.18182 342.676 9.03693 342.789 8.84375C342.906 8.65057 342.964 8.41051 342.964 8.12358C342.964 7.83381 342.906 7.58949 342.789 7.39062C342.676 7.19176 342.501 7.04119 342.265 6.93892C342.032 6.83381 341.738 6.78125 341.383 6.78125H340.139V14H338.294ZM343.007 10.0284L345.176 14H343.139L341.017 10.0284H343.007ZM346.169 14V5.27273H352.049V6.79403H348.014V8.87358H351.747V10.3949H348.014V12.4787H352.066V14H346.169ZM356.81 10.9659H358.379L359.167 11.9801L359.942 12.8835L361.404 14.7159H359.683L358.677 13.4801L358.161 12.7472L356.81 10.9659ZM361.536 9.63636C361.536 10.5881 361.356 11.3977 360.995 12.0653C360.637 12.733 360.148 13.2429 359.529 13.5952C358.913 13.9446 358.219 14.1193 357.45 14.1193C356.674 14.1193 355.978 13.9432 355.362 13.5909C354.745 13.2386 354.258 12.7287 353.9 12.0611C353.542 11.3935 353.363 10.5852 353.363 9.63636C353.363 8.68466 353.542 7.875 353.9 7.20739C354.258 6.53977 354.745 6.03125 355.362 5.68182C355.978 5.32955 356.674 5.15341 357.45 5.15341C358.219 5.15341 358.913 5.32955 359.529 5.68182C360.148 6.03125 360.637 6.53977 360.995 7.20739C361.356 7.875 361.536 8.68466 361.536 9.63636ZM359.665 9.63636C359.665 9.01989 359.573 8.5 359.388 8.0767C359.207 7.65341 358.95 7.33239 358.617 7.11364C358.285 6.89489 357.896 6.78551 357.45 6.78551C357.004 6.78551 356.614 6.89489 356.282 7.11364C355.95 7.33239 355.691 7.65341 355.506 8.0767C355.325 8.5 355.234 9.01989 355.234 9.63636C355.234 10.2528 355.325 10.7727 355.506 11.196C355.691 11.6193 355.95 11.9403 356.282 12.1591C356.614 12.3778 357.004 12.4872 357.45 12.4872C357.896 12.4872 358.285 12.3778 358.617 12.1591C358.95 11.9403 359.207 11.6193 359.388 11.196C359.573 10.7727 359.665 10.2528 359.665 9.63636Z" fill="black"/>
<path d="M286.926 23.0625V27H285.92V20.4545H286.892V21.4773H286.977C287.131 21.1449 287.364 20.8778 287.676 20.6761C287.989 20.4716 288.392 20.3693 288.886 20.3693C289.33 20.3693 289.717 20.4602 290.05 20.642C290.382 20.821 290.641 21.0938 290.825 21.4602C291.01 21.8239 291.102 22.2841 291.102 22.8409V27H290.097V22.9091C290.097 22.3949 289.963 21.9943 289.696 21.7074C289.429 21.4176 289.063 21.2727 288.597 21.2727C288.276 21.2727 287.989 21.3423 287.736 21.4815C287.486 21.6207 287.288 21.8239 287.143 22.0909C286.999 22.358 286.926 22.6818 286.926 23.0625ZM295.684 27.1364C295.054 27.1364 294.51 26.9972 294.052 26.7188C293.598 26.4375 293.247 26.0455 293 25.5426C292.755 25.0369 292.633 24.4489 292.633 23.7784C292.633 23.108 292.755 22.517 293 22.0057C293.247 21.4915 293.591 21.0909 294.031 20.804C294.474 20.5142 294.991 20.3693 295.582 20.3693C295.923 20.3693 296.26 20.4261 296.592 20.5398C296.924 20.6534 297.227 20.8381 297.5 21.0938C297.772 21.3466 297.99 21.6818 298.152 22.0994C298.314 22.517 298.395 23.0312 298.395 23.642V24.0682H293.349V23.1989H297.372C297.372 22.8295 297.298 22.5 297.15 22.2102C297.005 21.9205 296.798 21.6918 296.528 21.5241C296.261 21.3565 295.946 21.2727 295.582 21.2727C295.181 21.2727 294.835 21.3722 294.542 21.571C294.252 21.767 294.029 22.0227 293.873 22.3381C293.717 22.6534 293.639 22.9915 293.639 23.3523V23.9318C293.639 24.4261 293.724 24.8452 293.895 25.1889C294.068 25.5298 294.308 25.7898 294.615 25.9688C294.922 26.1449 295.278 26.233 295.684 26.233C295.949 26.233 296.187 26.196 296.4 26.1222C296.616 26.0455 296.802 25.9318 296.958 25.7812C297.115 25.6278 297.235 25.4375 297.321 25.2102L298.292 25.483C298.19 25.8125 298.018 26.1023 297.777 26.3523C297.535 26.5994 297.237 26.7926 296.882 26.9318C296.527 27.0682 296.127 27.1364 295.684 27.1364ZM302.669 27.1364C302.038 27.1364 301.494 26.9972 301.037 26.7188C300.582 26.4375 300.231 26.0455 299.984 25.5426C299.74 25.0369 299.618 24.4489 299.618 23.7784C299.618 23.108 299.74 22.517 299.984 22.0057C300.231 21.4915 300.575 21.0909 301.015 20.804C301.458 20.5142 301.975 20.3693 302.566 20.3693C302.907 20.3693 303.244 20.4261 303.576 20.5398C303.909 20.6534 304.211 20.8381 304.484 21.0938C304.757 21.3466 304.974 21.6818 305.136 22.0994C305.298 22.517 305.379 23.0312 305.379 23.642V24.0682H300.333V23.1989H304.356C304.356 22.8295 304.282 22.5 304.135 22.2102C303.99 21.9205 303.782 21.6918 303.512 21.5241C303.245 21.3565 302.93 21.2727 302.566 21.2727C302.166 21.2727 301.819 21.3722 301.527 21.571C301.237 21.767 301.014 22.0227 300.858 22.3381C300.701 22.6534 300.623 22.9915 300.623 23.3523V23.9318C300.623 24.4261 300.708 24.8452 300.879 25.1889C301.052 25.5298 301.292 25.7898 301.599 25.9688C301.906 26.1449 302.262 26.233 302.669 26.233C302.933 26.233 303.172 26.196 303.385 26.1222C303.6 26.0455 303.787 25.9318 303.943 25.7812C304.099 25.6278 304.22 25.4375 304.305 25.2102L305.277 25.483C305.174 25.8125 305.002 26.1023 304.761 26.3523C304.52 26.5994 304.221 26.7926 303.866 26.9318C303.511 27.0682 303.112 27.1364 302.669 27.1364ZM309.38 27.1364C308.835 27.1364 308.353 26.9986 307.936 26.723C307.518 26.4446 307.191 26.0526 306.956 25.5469C306.72 25.0384 306.602 24.4375 306.602 23.7443C306.602 23.0568 306.72 22.4602 306.956 21.9545C307.191 21.4489 307.52 21.0582 307.94 20.7827C308.36 20.5071 308.846 20.3693 309.397 20.3693C309.824 20.3693 310.16 20.4403 310.407 20.5824C310.657 20.7216 310.848 20.8807 310.978 21.0597C311.112 21.2358 311.216 21.3807 311.289 21.4943H311.375V18.2727H312.38V27H311.409V25.9943H311.289C311.216 26.1136 311.11 26.2642 310.974 26.446C310.838 26.625 310.643 26.7855 310.39 26.9276C310.137 27.0668 309.801 27.1364 309.38 27.1364ZM309.517 26.233C309.92 26.233 310.261 26.1278 310.539 25.9176C310.818 25.7045 311.029 25.4105 311.174 25.0355C311.319 24.6577 311.392 24.2216 311.392 23.7273C311.392 23.2386 311.321 22.8111 311.179 22.4446C311.037 22.0753 310.826 21.7884 310.548 21.5838C310.27 21.3764 309.926 21.2727 309.517 21.2727C309.091 21.2727 308.735 21.3821 308.451 21.6009C308.17 21.8168 307.958 22.1108 307.816 22.483C307.677 22.8523 307.608 23.267 307.608 23.7273C307.608 24.1932 307.679 24.6165 307.821 24.9972C307.966 25.375 308.179 25.6761 308.46 25.9006C308.744 26.1222 309.096 26.233 309.517 26.233ZM318.998 21.9205L318.095 22.1761C318.038 22.0256 317.954 21.8793 317.843 21.7372C317.735 21.5923 317.588 21.473 317.4 21.3793C317.213 21.2855 316.973 21.2386 316.68 21.2386C316.279 21.2386 315.946 21.331 315.679 21.5156C315.414 21.6974 315.282 21.929 315.282 22.2102C315.282 22.4602 315.373 22.6577 315.555 22.8026C315.737 22.9474 316.021 23.0682 316.407 23.1648L317.379 23.4034C317.964 23.5455 318.4 23.7628 318.687 24.0554C318.974 24.3452 319.118 24.7187 319.118 25.1761C319.118 25.5511 319.01 25.8864 318.794 26.1818C318.581 26.4773 318.282 26.7102 317.899 26.8807C317.515 27.0511 317.069 27.1364 316.561 27.1364C315.893 27.1364 315.341 26.9915 314.903 26.7017C314.466 26.4119 314.189 25.9886 314.072 25.4318L315.027 25.1932C315.118 25.5455 315.289 25.8097 315.542 25.9858C315.798 26.1619 316.132 26.25 316.544 26.25C317.012 26.25 317.385 26.1506 317.66 25.9517C317.939 25.75 318.078 25.5085 318.078 25.2273C318.078 25 317.998 24.8097 317.839 24.6562C317.68 24.5 317.436 24.3835 317.106 24.3068L316.015 24.0511C315.416 23.9091 314.975 23.6889 314.694 23.3906C314.416 23.0895 314.277 22.7131 314.277 22.2614C314.277 21.892 314.38 21.5653 314.588 21.2812C314.798 20.9972 315.083 20.7741 315.444 20.6122C315.808 20.4503 316.22 20.3693 316.68 20.3693C317.328 20.3693 317.836 20.5114 318.206 20.7955C318.578 21.0795 318.842 21.4545 318.998 21.9205ZM324.143 27V18.2727H327.092C327.773 18.2727 328.333 18.3892 328.771 18.6222C329.208 18.8523 329.532 19.169 329.742 19.5724C329.952 19.9759 330.058 20.4347 330.058 20.9489C330.058 21.4631 329.952 21.919 329.742 22.3168C329.532 22.7145 329.21 23.027 328.775 23.2543C328.34 23.4787 327.785 23.5909 327.109 23.5909H324.722V22.6364H327.075C327.54 22.6364 327.915 22.5682 328.2 22.4318C328.487 22.2955 328.694 22.1023 328.822 21.8523C328.952 21.5994 329.018 21.2983 329.018 20.9489C329.018 20.5994 328.952 20.294 328.822 20.0327C328.691 19.7713 328.482 19.5696 328.195 19.4276C327.908 19.2827 327.529 19.2102 327.058 19.2102H325.2V27H324.143ZM328.251 23.0795L330.398 27H329.171L327.058 23.0795H328.251ZM334.356 27.1364C333.725 27.1364 333.181 26.9972 332.724 26.7188C332.27 26.4375 331.919 26.0455 331.672 25.5426C331.427 25.0369 331.305 24.4489 331.305 23.7784C331.305 23.108 331.427 22.517 331.672 22.0057C331.919 21.4915 332.262 21.0909 332.703 20.804C333.146 20.5142 333.663 20.3693 334.254 20.3693C334.595 20.3693 334.931 20.4261 335.264 20.5398C335.596 20.6534 335.899 20.8381 336.172 21.0938C336.444 21.3466 336.662 21.6818 336.824 22.0994C336.985 22.517 337.066 23.0312 337.066 23.642V24.0682H332.021V23.1989H336.044C336.044 22.8295 335.97 22.5 335.822 22.2102C335.677 21.9205 335.47 21.6918 335.2 21.5241C334.933 21.3565 334.618 21.2727 334.254 21.2727C333.853 21.2727 333.507 21.3722 333.214 21.571C332.924 21.767 332.701 22.0227 332.545 22.3381C332.389 22.6534 332.311 22.9915 332.311 23.3523V23.9318C332.311 24.4261 332.396 24.8452 332.566 25.1889C332.74 25.5298 332.98 25.7898 333.287 25.9688C333.593 26.1449 333.95 26.233 334.356 26.233C334.62 26.233 334.859 26.196 335.072 26.1222C335.288 26.0455 335.474 25.9318 335.63 25.7812C335.787 25.6278 335.907 25.4375 335.993 25.2102L336.964 25.483C336.862 25.8125 336.69 26.1023 336.449 26.3523C336.207 26.5994 335.909 26.7926 335.554 26.9318C335.199 27.0682 334.799 27.1364 334.356 27.1364ZM343.749 20.4545L341.329 27H340.306L337.886 20.4545H338.977L340.783 25.6705H340.852L342.658 20.4545H343.749ZM345.077 27V20.4545H346.082V27H345.077ZM345.588 19.3636C345.392 19.3636 345.223 19.2969 345.081 19.1634C344.942 19.0298 344.872 18.8693 344.872 18.6818C344.872 18.4943 344.942 18.3338 345.081 18.2003C345.223 18.0668 345.392 18 345.588 18C345.784 18 345.952 18.0668 346.091 18.2003C346.233 18.3338 346.304 18.4943 346.304 18.6818C346.304 18.8693 346.233 19.0298 346.091 19.1634C345.952 19.2969 345.784 19.3636 345.588 19.3636ZM350.669 27.1364C350.038 27.1364 349.494 26.9972 349.037 26.7188C348.582 26.4375 348.231 26.0455 347.984 25.5426C347.74 25.0369 347.618 24.4489 347.618 23.7784C347.618 23.108 347.74 22.517 347.984 22.0057C348.231 21.4915 348.575 21.0909 349.015 20.804C349.458 20.5142 349.975 20.3693 350.566 20.3693C350.907 20.3693 351.244 20.4261 351.576 20.5398C351.909 20.6534 352.211 20.8381 352.484 21.0938C352.757 21.3466 352.974 21.6818 353.136 22.0994C353.298 22.517 353.379 23.0312 353.379 23.642V24.0682H348.333V23.1989H352.356C352.356 22.8295 352.282 22.5 352.135 22.2102C351.99 21.9205 351.782 21.6918 351.512 21.5241C351.245 21.3565 350.93 21.2727 350.566 21.2727C350.166 21.2727 349.819 21.3722 349.527 21.571C349.237 21.767 349.014 22.0227 348.858 22.3381C348.701 22.6534 348.623 22.9915 348.623 23.3523V23.9318C348.623 24.4261 348.708 24.8452 348.879 25.1889C349.052 25.5298 349.292 25.7898 349.599 25.9688C349.906 26.1449 350.262 26.233 350.669 26.233C350.933 26.233 351.172 26.196 351.385 26.1222C351.6 26.0455 351.787 25.9318 351.943 25.7812C352.099 25.6278 352.22 25.4375 352.305 25.2102L353.277 25.483C353.174 25.8125 353.002 26.1023 352.761 26.3523C352.52 26.5994 352.221 26.7926 351.866 26.9318C351.511 27.0682 351.112 27.1364 350.669 27.1364ZM356.392 27L354.397 20.4545H355.454L356.869 25.4659H356.937L358.335 20.4545H359.409L360.789 25.4489H360.858L362.272 20.4545H363.329L361.335 27H360.346L358.914 21.9716H358.812L357.38 27H356.392Z" fill="black"/>
<path d="M285.759 14V5.27273H291.537V6.79403H287.604V8.87358H291.153V10.3949H287.604V14H285.759ZM295.221 14.1278C294.559 14.1278 293.987 13.9872 293.504 13.706C293.023 13.4219 292.653 13.027 292.391 12.5213C292.13 12.0128 291.999 11.4233 291.999 10.7528C291.999 10.0767 292.13 9.4858 292.391 8.98011C292.653 8.47159 293.023 8.0767 293.504 7.79545C293.987 7.51136 294.559 7.36932 295.221 7.36932C295.883 7.36932 296.454 7.51136 296.934 7.79545C297.417 8.0767 297.789 8.47159 298.05 8.98011C298.312 9.4858 298.442 10.0767 298.442 10.7528C298.442 11.4233 298.312 12.0128 298.05 12.5213C297.789 13.027 297.417 13.4219 296.934 13.706C296.454 13.9872 295.883 14.1278 295.221 14.1278ZM295.229 12.7216C295.531 12.7216 295.782 12.6364 295.984 12.4659C296.185 12.2926 296.337 12.0568 296.44 11.7585C296.545 11.4602 296.597 11.1207 296.597 10.7401C296.597 10.3594 296.545 10.0199 296.44 9.72159C296.337 9.4233 296.185 9.1875 295.984 9.0142C295.782 8.84091 295.531 8.75426 295.229 8.75426C294.925 8.75426 294.67 8.84091 294.462 9.0142C294.258 9.1875 294.103 9.4233 293.998 9.72159C293.896 10.0199 293.844 10.3594 293.844 10.7401C293.844 11.1207 293.896 11.4602 293.998 11.7585C294.103 12.0568 294.258 12.2926 294.462 12.4659C294.67 12.6364 294.925 12.7216 295.229 12.7216ZM301.438 5.27273V14H299.623V5.27273H301.438ZM304.708 5.27273V14H302.892V5.27273H304.708ZM309.119 14.1278C308.457 14.1278 307.885 13.9872 307.402 13.706C306.922 13.4219 306.551 13.027 306.29 12.5213C306.028 12.0128 305.898 11.4233 305.898 10.7528C305.898 10.0767 306.028 9.4858 306.29 8.98011C306.551 8.47159 306.922 8.0767 307.402 7.79545C307.885 7.51136 308.457 7.36932 309.119 7.36932C309.781 7.36932 310.352 7.51136 310.832 7.79545C311.315 8.0767 311.688 8.47159 311.949 8.98011C312.21 9.4858 312.341 10.0767 312.341 10.7528C312.341 11.4233 312.21 12.0128 311.949 12.5213C311.688 13.027 311.315 13.4219 310.832 13.706C310.352 13.9872 309.781 14.1278 309.119 14.1278ZM309.128 12.7216C309.429 12.7216 309.68 12.6364 309.882 12.4659C310.084 12.2926 310.236 12.0568 310.338 11.7585C310.443 11.4602 310.496 11.1207 310.496 10.7401C310.496 10.3594 310.443 10.0199 310.338 9.72159C310.236 9.4233 310.084 9.1875 309.882 9.0142C309.68 8.84091 309.429 8.75426 309.128 8.75426C308.824 8.75426 308.568 8.84091 308.361 9.0142C308.156 9.1875 308.001 9.4233 307.896 9.72159C307.794 10.0199 307.743 10.3594 307.743 10.7401C307.743 11.1207 307.794 11.4602 307.896 11.7585C308.001 12.0568 308.156 12.2926 308.361 12.4659C308.568 12.6364 308.824 12.7216 309.128 12.7216ZM314.648 14L312.867 7.45455H314.704L315.718 11.8523H315.778L316.835 7.45455H318.637L319.711 11.8267H319.766L320.763 7.45455H322.596L320.819 14H318.897L317.772 9.88352H317.691L316.566 14H314.648ZM326.383 14.1278C325.71 14.1278 325.13 13.9915 324.645 13.7188C324.162 13.4432 323.789 13.054 323.528 12.5511C323.267 12.0455 323.136 11.4474 323.136 10.7571C323.136 10.0838 323.267 9.4929 323.528 8.98438C323.789 8.47585 324.157 8.07955 324.632 7.79545C325.109 7.51136 325.669 7.36932 326.311 7.36932C326.743 7.36932 327.145 7.43892 327.517 7.57812C327.892 7.71449 328.218 7.92045 328.497 8.19602C328.778 8.47159 328.997 8.81818 329.153 9.2358C329.309 9.65057 329.387 10.1364 329.387 10.6932V11.1918H323.86V10.0668H327.679C327.679 9.8054 327.622 9.57386 327.508 9.37216C327.395 9.17045 327.237 9.01278 327.035 8.89915C326.836 8.78267 326.605 8.72443 326.341 8.72443C326.065 8.72443 325.821 8.78835 325.608 8.91619C325.397 9.04119 325.233 9.21023 325.113 9.4233C324.994 9.63352 324.933 9.8679 324.93 10.1264V11.196C324.93 11.5199 324.99 11.7997 325.109 12.0355C325.231 12.2713 325.403 12.4531 325.625 12.581C325.846 12.7088 326.109 12.7727 326.413 12.7727C326.615 12.7727 326.799 12.7443 326.967 12.6875C327.135 12.6307 327.278 12.5455 327.397 12.4318C327.517 12.3182 327.608 12.179 327.67 12.0142L329.349 12.125C329.264 12.5284 329.089 12.8807 328.825 13.1818C328.564 13.4801 328.225 13.7131 327.811 13.8807C327.399 14.0455 326.923 14.1278 326.383 14.1278ZM330.572 14V7.45455H332.332V8.59659H332.4C332.52 8.19034 332.72 7.88352 333.001 7.67614C333.282 7.46591 333.606 7.3608 333.973 7.3608C334.064 7.3608 334.162 7.36648 334.267 7.37784C334.372 7.3892 334.464 7.40483 334.544 7.42472V9.03551C334.458 9.00994 334.341 8.98722 334.19 8.96733C334.039 8.94744 333.902 8.9375 333.777 8.9375C333.51 8.9375 333.271 8.99574 333.061 9.11222C332.853 9.22585 332.689 9.38494 332.566 9.58949C332.447 9.79403 332.387 10.0298 332.387 10.2969V14H330.572ZM338.294 14V5.27273H341.737C342.396 5.27273 342.958 5.39062 343.424 5.62642C343.893 5.85937 344.25 6.19034 344.494 6.61932C344.741 7.04545 344.865 7.54687 344.865 8.12358C344.865 8.70312 344.74 9.2017 344.49 9.61932C344.24 10.0341 343.877 10.3523 343.403 10.5739C342.931 10.7955 342.36 10.9062 341.69 10.9062H339.385V9.4233H341.392C341.744 9.4233 342.037 9.375 342.27 9.27841C342.502 9.18182 342.676 9.03693 342.789 8.84375C342.906 8.65057 342.964 8.41051 342.964 8.12358C342.964 7.83381 342.906 7.58949 342.789 7.39062C342.676 7.19176 342.501 7.04119 342.265 6.93892C342.032 6.83381 341.738 6.78125 341.383 6.78125H340.139V14H338.294ZM343.007 10.0284L345.176 14H343.139L341.017 10.0284H343.007ZM346.169 14V5.27273H352.049V6.79403H348.014V8.87358H351.747V10.3949H348.014V12.4787H352.066V14H346.169ZM356.81 10.9659H358.379L359.167 11.9801L359.942 12.8835L361.404 14.7159H359.683L358.677 13.4801L358.161 12.7472L356.81 10.9659ZM361.536 9.63636C361.536 10.5881 361.356 11.3977 360.995 12.0653C360.637 12.733 360.148 13.2429 359.529 13.5952C358.913 13.9446 358.219 14.1193 357.45 14.1193C356.674 14.1193 355.978 13.9432 355.362 13.5909C354.745 13.2386 354.258 12.7287 353.9 12.0611C353.542 11.3935 353.363 10.5852 353.363 9.63636C353.363 8.68466 353.542 7.875 353.9 7.20739C354.258 6.53977 354.745 6.03125 355.362 5.68182C355.978 5.32955 356.674 5.15341 357.45 5.15341C358.219 5.15341 358.913 5.32955 359.529 5.68182C360.148 6.03125 360.637 6.53977 360.995 7.20739C361.356 7.875 361.536 8.68466 361.536 9.63636ZM359.665 9.63636C359.665 9.01989 359.573 8.5 359.388 8.0767C359.207 7.65341 358.95 7.33239 358.617 7.11364C358.285 6.89489 357.896 6.78551 357.45 6.78551C357.004 6.78551 356.614 6.89489 356.282 7.11364C355.95 7.33239 355.691 7.65341 355.506 8.0767C355.325 8.5 355.234 9.01989 355.234 9.63636C355.234 10.2528 355.325 10.7727 355.506 11.196C355.691 11.6193 355.95 11.9403 356.282 12.1591C356.614 12.3778 357.004 12.4872 357.45 12.4872C357.896 12.4872 358.285 12.3778 358.617 12.1591C358.95 11.9403 359.207 11.6193 359.388 11.196C359.573 10.7727 359.665 10.2528 359.665 9.63636Z" fill="black"/>
<path d="M286.926 23.0625V27H285.92V20.4545H286.892V21.4773H286.977C287.131 21.1449 287.364 20.8778 287.676 20.6761C287.989 20.4716 288.392 20.3693 288.886 20.3693C289.33 20.3693 289.717 20.4602 290.05 20.642C290.382 20.821 290.641 21.0938 290.825 21.4602C291.01 21.8239 291.102 22.2841 291.102 22.8409V27H290.097V22.9091C290.097 22.3949 289.963 21.9943 289.696 21.7074C289.429 21.4176 289.063 21.2727 288.597 21.2727C288.276 21.2727 287.989 21.3423 287.736 21.4815C287.486 21.6207 287.288 21.8239 287.143 22.0909C286.999 22.358 286.926 22.6818 286.926 23.0625ZM295.684 27.1364C295.054 27.1364 294.51 26.9972 294.052 26.7188C293.598 26.4375 293.247 26.0455 293 25.5426C292.755 25.0369 292.633 24.4489 292.633 23.7784C292.633 23.108 292.755 22.517 293 22.0057C293.247 21.4915 293.591 21.0909 294.031 20.804C294.474 20.5142 294.991 20.3693 295.582 20.3693C295.923 20.3693 296.26 20.4261 296.592 20.5398C296.924 20.6534 297.227 20.8381 297.5 21.0938C297.772 21.3466 297.99 21.6818 298.152 22.0994C298.314 22.517 298.395 23.0312 298.395 23.642V24.0682H293.349V23.1989H297.372C297.372 22.8295 297.298 22.5 297.15 22.2102C297.005 21.9205 296.798 21.6918 296.528 21.5241C296.261 21.3565 295.946 21.2727 295.582 21.2727C295.181 21.2727 294.835 21.3722 294.542 21.571C294.252 21.767 294.029 22.0227 293.873 22.3381C293.717 22.6534 293.639 22.9915 293.639 23.3523V23.9318C293.639 24.4261 293.724 24.8452 293.895 25.1889C294.068 25.5298 294.308 25.7898 294.615 25.9688C294.922 26.1449 295.278 26.233 295.684 26.233C295.949 26.233 296.187 26.196 296.4 26.1222C296.616 26.0455 296.802 25.9318 296.958 25.7812C297.115 25.6278 297.235 25.4375 297.321 25.2102L298.292 25.483C298.19 25.8125 298.018 26.1023 297.777 26.3523C297.535 26.5994 297.237 26.7926 296.882 26.9318C296.527 27.0682 296.127 27.1364 295.684 27.1364ZM302.669 27.1364C302.038 27.1364 301.494 26.9972 301.037 26.7188C300.582 26.4375 300.231 26.0455 299.984 25.5426C299.74 25.0369 299.618 24.4489 299.618 23.7784C299.618 23.108 299.74 22.517 299.984 22.0057C300.231 21.4915 300.575 21.0909 301.015 20.804C301.458 20.5142 301.975 20.3693 302.566 20.3693C302.907 20.3693 303.244 20.4261 303.576 20.5398C303.909 20.6534 304.211 20.8381 304.484 21.0938C304.757 21.3466 304.974 21.6818 305.136 22.0994C305.298 22.517 305.379 23.0312 305.379 23.642V24.0682H300.333V23.1989H304.356C304.356 22.8295 304.282 22.5 304.135 22.2102C303.99 21.9205 303.782 21.6918 303.512 21.5241C303.245 21.3565 302.93 21.2727 302.566 21.2727C302.166 21.2727 301.819 21.3722 301.527 21.571C301.237 21.767 301.014 22.0227 300.858 22.3381C300.701 22.6534 300.623 22.9915 300.623 23.3523V23.9318C300.623 24.4261 300.708 24.8452 300.879 25.1889C301.052 25.5298 301.292 25.7898 301.599 25.9688C301.906 26.1449 302.262 26.233 302.669 26.233C302.933 26.233 303.172 26.196 303.385 26.1222C303.6 26.0455 303.787 25.9318 303.943 25.7812C304.099 25.6278 304.22 25.4375 304.305 25.2102L305.277 25.483C305.174 25.8125 305.002 26.1023 304.761 26.3523C304.52 26.5994 304.221 26.7926 303.866 26.9318C303.511 27.0682 303.112 27.1364 302.669 27.1364ZM309.38 27.1364C308.835 27.1364 308.353 26.9986 307.936 26.723C307.518 26.4446 307.191 26.0526 306.956 25.5469C306.72 25.0384 306.602 24.4375 306.602 23.7443C306.602 23.0568 306.72 22.4602 306.956 21.9545C307.191 21.4489 307.52 21.0582 307.94 20.7827C308.36 20.5071 308.846 20.3693 309.397 20.3693C309.824 20.3693 310.16 20.4403 310.407 20.5824C310.657 20.7216 310.848 20.8807 310.978 21.0597C311.112 21.2358 311.216 21.3807 311.289 21.4943H311.375V18.2727H312.38V27H311.409V25.9943H311.289C311.216 26.1136 311.11 26.2642 310.974 26.446C310.838 26.625 310.643 26.7855 310.39 26.9276C310.137 27.0668 309.801 27.1364 309.38 27.1364ZM309.517 26.233C309.92 26.233 310.261 26.1278 310.539 25.9176C310.818 25.7045 311.029 25.4105 311.174 25.0355C311.319 24.6577 311.392 24.2216 311.392 23.7273C311.392 23.2386 311.321 22.8111 311.179 22.4446C311.037 22.0753 310.826 21.7884 310.548 21.5838C310.27 21.3764 309.926 21.2727 309.517 21.2727C309.091 21.2727 308.735 21.3821 308.451 21.6009C308.17 21.8168 307.958 22.1108 307.816 22.483C307.677 22.8523 307.608 23.267 307.608 23.7273C307.608 24.1932 307.679 24.6165 307.821 24.9972C307.966 25.375 308.179 25.6761 308.46 25.9006C308.744 26.1222 309.096 26.233 309.517 26.233ZM318.998 21.9205L318.095 22.1761C318.038 22.0256 317.954 21.8793 317.843 21.7372C317.735 21.5923 317.588 21.473 317.4 21.3793C317.213 21.2855 316.973 21.2386 316.68 21.2386C316.279 21.2386 315.946 21.331 315.679 21.5156C315.414 21.6974 315.282 21.929 315.282 22.2102C315.282 22.4602 315.373 22.6577 315.555 22.8026C315.737 22.9474 316.021 23.0682 316.407 23.1648L317.379 23.4034C317.964 23.5455 318.4 23.7628 318.687 24.0554C318.974 24.3452 319.118 24.7187 319.118 25.1761C319.118 25.5511 319.01 25.8864 318.794 26.1818C318.581 26.4773 318.282 26.7102 317.899 26.8807C317.515 27.0511 317.069 27.1364 316.561 27.1364C315.893 27.1364 315.341 26.9915 314.903 26.7017C314.466 26.4119 314.189 25.9886 314.072 25.4318L315.027 25.1932C315.118 25.5455 315.289 25.8097 315.542 25.9858C315.798 26.1619 316.132 26.25 316.544 26.25C317.012 26.25 317.385 26.1506 317.66 25.9517C317.939 25.75 318.078 25.5085 318.078 25.2273C318.078 25 317.998 24.8097 317.839 24.6562C317.68 24.5 317.436 24.3835 317.106 24.3068L316.015 24.0511C315.416 23.9091 314.975 23.6889 314.694 23.3906C314.416 23.0895 314.277 22.7131 314.277 22.2614C314.277 21.892 314.38 21.5653 314.588 21.2812C314.798 20.9972 315.083 20.7741 315.444 20.6122C315.808 20.4503 316.22 20.3693 316.68 20.3693C317.328 20.3693 317.836 20.5114 318.206 20.7955C318.578 21.0795 318.842 21.4545 318.998 21.9205ZM324.143 27V18.2727H327.092C327.773 18.2727 328.333 18.3892 328.771 18.6222C329.208 18.8523 329.532 19.169 329.742 19.5724C329.952 19.9759 330.058 20.4347 330.058 20.9489C330.058 21.4631 329.952 21.919 329.742 22.3168C329.532 22.7145 329.21 23.027 328.775 23.2543C328.34 23.4787 327.785 23.5909 327.109 23.5909H324.722V22.6364H327.075C327.54 22.6364 327.915 22.5682 328.2 22.4318C328.487 22.2955 328.694 22.1023 328.822 21.8523C328.952 21.5994 329.018 21.2983 329.018 20.9489C329.018 20.5994 328.952 20.294 328.822 20.0327C328.691 19.7713 328.482 19.5696 328.195 19.4276C327.908 19.2827 327.529 19.2102 327.058 19.2102H325.2V27H324.143ZM328.251 23.0795L330.398 27H329.171L327.058 23.0795H328.251ZM334.356 27.1364C333.725 27.1364 333.181 26.9972 332.724 26.7188C332.27 26.4375 331.919 26.0455 331.672 25.5426C331.427 25.0369 331.305 24.4489 331.305 23.7784C331.305 23.108 331.427 22.517 331.672 22.0057C331.919 21.4915 332.262 21.0909 332.703 20.804C333.146 20.5142 333.663 20.3693 334.254 20.3693C334.595 20.3693 334.931 20.4261 335.264 20.5398C335.596 20.6534 335.899 20.8381 336.172 21.0938C336.444 21.3466 336.662 21.6818 336.824 22.0994C336.985 22.517 337.066 23.0312 337.066 23.642V24.0682H332.021V23.1989H336.044C336.044 22.8295 335.97 22.5 335.822 22.2102C335.677 21.9205 335.47 21.6918 335.2 21.5241C334.933 21.3565 334.618 21.2727 334.254 21.2727C333.853 21.2727 333.507 21.3722 333.214 21.571C332.924 21.767 332.701 22.0227 332.545 22.3381C332.389 22.6534 332.311 22.9915 332.311 23.3523V23.9318C332.311 24.4261 332.396 24.8452 332.566 25.1889C332.74 25.5298 332.98 25.7898 333.287 25.9688C333.593 26.1449 333.95 26.233 334.356 26.233C334.62 26.233 334.859 26.196 335.072 26.1222C335.288 26.0455 335.474 25.9318 335.63 25.7812C335.787 25.6278 335.907 25.4375 335.993 25.2102L336.964 25.483C336.862 25.8125 336.69 26.1023 336.449 26.3523C336.207 26.5994 335.909 26.7926 335.554 26.9318C335.199 27.0682 334.799 27.1364 334.356 27.1364ZM343.749 20.4545L341.329 27H340.306L337.886 20.4545H338.977L340.783 25.6705H340.852L342.658 20.4545H343.749ZM345.077 27V20.4545H346.082V27H345.077ZM345.588 19.3636C345.392 19.3636 345.223 19.2969 345.081 19.1634C344.942 19.0298 344.872 18.8693 344.872 18.6818C344.872 18.4943 344.942 18.3338 345.081 18.2003C345.223 18.0668 345.392 18 345.588 18C345.784 18 345.952 18.0668 346.091 18.2003C346.233 18.3338 346.304 18.4943 346.304 18.6818C346.304 18.8693 346.233 19.0298 346.091 19.1634C345.952 19.2969 345.784 19.3636 345.588 19.3636ZM350.669 27.1364C350.038 27.1364 349.494 26.9972 349.037 26.7188C348.582 26.4375 348.231 26.0455 347.984 25.5426C347.74 25.0369 347.618 24.4489 347.618 23.7784C347.618 23.108 347.74 22.517 347.984 22.0057C348.231 21.4915 348.575 21.0909 349.015 20.804C349.458 20.5142 349.975 20.3693 350.566 20.3693C350.907 20.3693 351.244 20.4261 351.576 20.5398C351.909 20.6534 352.211 20.8381 352.484 21.0938C352.757 21.3466 352.974 21.6818 353.136 22.0994C353.298 22.517 353.379 23.0312 353.379 23.642V24.0682H348.333V23.1989H352.356C352.356 22.8295 352.282 22.5 352.135 22.2102C351.99 21.9205 351.782 21.6918 351.512 21.5241C351.245 21.3565 350.93 21.2727 350.566 21.2727C350.166 21.2727 349.819 21.3722 349.527 21.571C349.237 21.767 349.014 22.0227 348.858 22.3381C348.701 22.6534 348.623 22.9915 348.623 23.3523V23.9318C348.623 24.4261 348.708 24.8452 348.879 25.1889C349.052 25.5298 349.292 25.7898 349.599 25.9688C349.906 26.1449 350.262 26.233 350.669 26.233C350.933 26.233 351.172 26.196 351.385 26.1222C351.6 26.0455 351.787 25.9318 351.943 25.7812C352.099 25.6278 352.22 25.4375 352.305 25.2102L353.277 25.483C353.174 25.8125 353.002 26.1023 352.761 26.3523C352.52 26.5994 352.221 26.7926 351.866 26.9318C351.511 27.0682 351.112 27.1364 350.669 27.1364ZM356.392 27L354.397 20.4545H355.454L356.869 25.4659H356.937L358.335 20.4545H359.409L360.789 25.4489H360.858L362.272 20.4545H363.329L361.335 27H360.346L358.914 21.9716H358.812L357.38 27H356.392Z" fill="black"/>
<path d="M286.759 60V51.2727H292.537V52.794H288.604V54.8736H292.153V56.3949H288.604V60H286.759ZM296.221 60.1278C295.559 60.1278 294.987 59.9872 294.504 59.706C294.023 59.4219 293.653 59.027 293.391 58.5213C293.13 58.0128 292.999 57.4233 292.999 56.7528C292.999 56.0767 293.13 55.4858 293.391 54.9801C293.653 54.4716 294.023 54.0767 294.504 53.7955C294.987 53.5114 295.559 53.3693 296.221 53.3693C296.883 53.3693 297.454 53.5114 297.934 53.7955C298.417 54.0767 298.789 54.4716 299.05 54.9801C299.312 55.4858 299.442 56.0767 299.442 56.7528C299.442 57.4233 299.312 58.0128 299.05 58.5213C298.789 59.027 298.417 59.4219 297.934 59.706C297.454 59.9872 296.883 60.1278 296.221 60.1278ZM296.229 58.7216C296.531 58.7216 296.782 58.6364 296.984 58.4659C297.185 58.2926 297.337 58.0568 297.44 57.7585C297.545 57.4602 297.597 57.1207 297.597 56.7401C297.597 56.3594 297.545 56.0199 297.44 55.7216C297.337 55.4233 297.185 55.1875 296.984 55.0142C296.782 54.8409 296.531 54.7543 296.229 54.7543C295.925 54.7543 295.67 54.8409 295.462 55.0142C295.258 55.1875 295.103 55.4233 294.998 55.7216C294.896 56.0199 294.844 56.3594 294.844 56.7401C294.844 57.1207 294.896 57.4602 294.998 57.7585C295.103 58.0568 295.258 58.2926 295.462 58.4659C295.67 58.6364 295.925 58.7216 296.229 58.7216ZM302.438 51.2727V60H300.623V51.2727H302.438ZM305.708 51.2727V60H303.892V51.2727H305.708ZM310.119 60.1278C309.457 60.1278 308.885 59.9872 308.402 59.706C307.922 59.4219 307.551 59.027 307.29 58.5213C307.028 58.0128 306.898 57.4233 306.898 56.7528C306.898 56.0767 307.028 55.4858 307.29 54.9801C307.551 54.4716 307.922 54.0767 308.402 53.7955C308.885 53.5114 309.457 53.3693 310.119 53.3693C310.781 53.3693 311.352 53.5114 311.832 53.7955C312.315 54.0767 312.688 54.4716 312.949 54.9801C313.21 55.4858 313.341 56.0767 313.341 56.7528C313.341 57.4233 313.21 58.0128 312.949 58.5213C312.688 59.027 312.315 59.4219 311.832 59.706C311.352 59.9872 310.781 60.1278 310.119 60.1278ZM310.128 58.7216C310.429 58.7216 310.68 58.6364 310.882 58.4659C311.084 58.2926 311.236 58.0568 311.338 57.7585C311.443 57.4602 311.496 57.1207 311.496 56.7401C311.496 56.3594 311.443 56.0199 311.338 55.7216C311.236 55.4233 311.084 55.1875 310.882 55.0142C310.68 54.8409 310.429 54.7543 310.128 54.7543C309.824 54.7543 309.568 54.8409 309.361 55.0142C309.156 55.1875 309.001 55.4233 308.896 55.7216C308.794 56.0199 308.743 56.3594 308.743 56.7401C308.743 57.1207 308.794 57.4602 308.896 57.7585C309.001 58.0568 309.156 58.2926 309.361 58.4659C309.568 58.6364 309.824 58.7216 310.128 58.7216ZM315.648 60L313.867 53.4545H315.704L316.718 57.8523H316.778L317.835 53.4545H319.637L320.711 57.8267H320.766L321.763 53.4545H323.596L321.819 60H319.897L318.772 55.8835H318.691L317.566 60H315.648ZM327.383 60.1278C326.71 60.1278 326.13 59.9915 325.645 59.7188C325.162 59.4432 324.789 59.054 324.528 58.5511C324.267 58.0455 324.136 57.4474 324.136 56.7571C324.136 56.0838 324.267 55.4929 324.528 54.9844C324.789 54.4759 325.157 54.0795 325.632 53.7955C326.109 53.5114 326.669 53.3693 327.311 53.3693C327.743 53.3693 328.145 53.4389 328.517 53.5781C328.892 53.7145 329.218 53.9205 329.497 54.196C329.778 54.4716 329.997 54.8182 330.153 55.2358C330.309 55.6506 330.387 56.1364 330.387 56.6932V57.1918H324.86V56.0668H328.679C328.679 55.8054 328.622 55.5739 328.508 55.3722C328.395 55.1705 328.237 55.0128 328.035 54.8991C327.836 54.7827 327.605 54.7244 327.341 54.7244C327.065 54.7244 326.821 54.7884 326.608 54.9162C326.397 55.0412 326.233 55.2102 326.113 55.4233C325.994 55.6335 325.933 55.8679 325.93 56.1264V57.196C325.93 57.5199 325.99 57.7997 326.109 58.0355C326.231 58.2713 326.403 58.4531 326.625 58.581C326.846 58.7088 327.109 58.7727 327.413 58.7727C327.615 58.7727 327.799 58.7443 327.967 58.6875C328.135 58.6307 328.278 58.5455 328.397 58.4318C328.517 58.3182 328.608 58.179 328.67 58.0142L330.349 58.125C330.264 58.5284 330.089 58.8807 329.825 59.1818C329.564 59.4801 329.225 59.7131 328.811 59.8807C328.399 60.0455 327.923 60.1278 327.383 60.1278ZM331.572 60V53.4545H333.332V54.5966H333.4C333.52 54.1903 333.72 53.8835 334.001 53.6761C334.282 53.4659 334.606 53.3608 334.973 53.3608C335.064 53.3608 335.162 53.3665 335.267 53.3778C335.372 53.3892 335.464 53.4048 335.544 53.4247V55.0355C335.458 55.0099 335.341 54.9872 335.19 54.9673C335.039 54.9474 334.902 54.9375 334.777 54.9375C334.51 54.9375 334.271 54.9957 334.061 55.1122C333.853 55.2259 333.689 55.3849 333.566 55.5895C333.447 55.794 333.387 56.0298 333.387 56.2969V60H331.572ZM339.294 60V51.2727H342.737C343.396 51.2727 343.958 51.3906 344.424 51.6264C344.893 51.8594 345.25 52.1903 345.494 52.6193C345.741 53.0455 345.865 53.5469 345.865 54.1236C345.865 54.7031 345.74 55.2017 345.49 55.6193C345.24 56.0341 344.877 56.3523 344.403 56.5739C343.931 56.7955 343.36 56.9062 342.69 56.9062H340.385V55.4233H342.392C342.744 55.4233 343.037 55.375 343.27 55.2784C343.502 55.1818 343.676 55.0369 343.789 54.8438C343.906 54.6506 343.964 54.4105 343.964 54.1236C343.964 53.8338 343.906 53.5895 343.789 53.3906C343.676 53.1918 343.501 53.0412 343.265 52.9389C343.032 52.8338 342.738 52.7812 342.383 52.7812H341.139V60H339.294ZM344.007 56.0284L346.176 60H344.139L342.017 56.0284H344.007ZM347.169 60V51.2727H353.049V52.794H349.014V54.8736H352.747V56.3949H349.014V58.4787H353.066V60H347.169ZM357.81 56.9659H359.379L360.167 57.9801L360.942 58.8835L362.404 60.7159H360.683L359.677 59.4801L359.161 58.7472L357.81 56.9659ZM362.536 55.6364C362.536 56.5881 362.356 57.3977 361.995 58.0653C361.637 58.733 361.148 59.2429 360.529 59.5952C359.913 59.9446 359.219 60.1193 358.45 60.1193C357.674 60.1193 356.978 59.9432 356.362 59.5909C355.745 59.2386 355.258 58.7287 354.9 58.0611C354.542 57.3935 354.363 56.5852 354.363 55.6364C354.363 54.6847 354.542 53.875 354.9 53.2074C355.258 52.5398 355.745 52.0312 356.362 51.6818C356.978 51.3295 357.674 51.1534 358.45 51.1534C359.219 51.1534 359.913 51.3295 360.529 51.6818C361.148 52.0312 361.637 52.5398 361.995 53.2074C362.356 53.875 362.536 54.6847 362.536 55.6364ZM360.665 55.6364C360.665 55.0199 360.573 54.5 360.388 54.0767C360.207 53.6534 359.95 53.3324 359.617 53.1136C359.285 52.8949 358.896 52.7855 358.45 52.7855C358.004 52.7855 357.614 52.8949 357.282 53.1136C356.95 53.3324 356.691 53.6534 356.506 54.0767C356.325 54.5 356.234 55.0199 356.234 55.6364C356.234 56.2528 356.325 56.7727 356.506 57.196C356.691 57.6193 356.95 57.9403 357.282 58.1591C357.614 58.3778 358.004 58.4872 358.45 58.4872C358.896 58.4872 359.285 58.3778 359.617 58.1591C359.95 57.9403 360.207 57.6193 360.388 57.196C360.573 56.7727 360.665 56.2528 360.665 55.6364Z" fill="black"/>
<path d="M287.926 69.0625V73H286.92V66.4545H287.892V67.4773H287.977C288.131 67.1449 288.364 66.8778 288.676 66.6761C288.989 66.4716 289.392 66.3693 289.886 66.3693C290.33 66.3693 290.717 66.4602 291.05 66.642C291.382 66.821 291.641 67.0938 291.825 67.4602C292.01 67.8239 292.102 68.2841 292.102 68.8409V73H291.097V68.9091C291.097 68.3949 290.963 67.9943 290.696 67.7074C290.429 67.4176 290.063 67.2727 289.597 67.2727C289.276 67.2727 288.989 67.3423 288.736 67.4815C288.486 67.6207 288.288 67.8239 288.143 68.0909C287.999 68.358 287.926 68.6818 287.926 69.0625ZM296.684 73.1364C296.054 73.1364 295.51 72.9972 295.052 72.7188C294.598 72.4375 294.247 72.0455 294 71.5426C293.755 71.0369 293.633 70.4489 293.633 69.7784C293.633 69.108 293.755 68.517 294 68.0057C294.247 67.4915 294.591 67.0909 295.031 66.804C295.474 66.5142 295.991 66.3693 296.582 66.3693C296.923 66.3693 297.26 66.4261 297.592 66.5398C297.924 66.6534 298.227 66.8381 298.5 67.0938C298.772 67.3466 298.99 67.6818 299.152 68.0994C299.314 68.517 299.395 69.0312 299.395 69.642V70.0682H294.349V69.1989H298.372C298.372 68.8295 298.298 68.5 298.15 68.2102C298.005 67.9205 297.798 67.6918 297.528 67.5241C297.261 67.3565 296.946 67.2727 296.582 67.2727C296.181 67.2727 295.835 67.3722 295.542 67.571C295.252 67.767 295.029 68.0227 294.873 68.3381C294.717 68.6534 294.639 68.9915 294.639 69.3523V69.9318C294.639 70.4261 294.724 70.8452 294.895 71.1889C295.068 71.5298 295.308 71.7898 295.615 71.9688C295.922 72.1449 296.278 72.233 296.684 72.233C296.949 72.233 297.187 72.196 297.4 72.1222C297.616 72.0455 297.802 71.9318 297.958 71.7812C298.115 71.6278 298.235 71.4375 298.321 71.2102L299.292 71.483C299.19 71.8125 299.018 72.1023 298.777 72.3523C298.535 72.5994 298.237 72.7926 297.882 72.9318C297.527 73.0682 297.127 73.1364 296.684 73.1364ZM303.669 73.1364C303.038 73.1364 302.494 72.9972 302.037 72.7188C301.582 72.4375 301.231 72.0455 300.984 71.5426C300.74 71.0369 300.618 70.4489 300.618 69.7784C300.618 69.108 300.74 68.517 300.984 68.0057C301.231 67.4915 301.575 67.0909 302.015 66.804C302.458 66.5142 302.975 66.3693 303.566 66.3693C303.907 66.3693 304.244 66.4261 304.576 66.5398C304.909 66.6534 305.211 66.8381 305.484 67.0938C305.757 67.3466 305.974 67.6818 306.136 68.0994C306.298 68.517 306.379 69.0312 306.379 69.642V70.0682H301.333V69.1989H305.356C305.356 68.8295 305.282 68.5 305.135 68.2102C304.99 67.9205 304.782 67.6918 304.512 67.5241C304.245 67.3565 303.93 67.2727 303.566 67.2727C303.166 67.2727 302.819 67.3722 302.527 67.571C302.237 67.767 302.014 68.0227 301.858 68.3381C301.701 68.6534 301.623 68.9915 301.623 69.3523V69.9318C301.623 70.4261 301.708 70.8452 301.879 71.1889C302.052 71.5298 302.292 71.7898 302.599 71.9688C302.906 72.1449 303.262 72.233 303.669 72.233C303.933 72.233 304.172 72.196 304.385 72.1222C304.6 72.0455 304.787 71.9318 304.943 71.7812C305.099 71.6278 305.22 71.4375 305.305 71.2102L306.277 71.483C306.174 71.8125 306.002 72.1023 305.761 72.3523C305.52 72.5994 305.221 72.7926 304.866 72.9318C304.511 73.0682 304.112 73.1364 303.669 73.1364ZM310.38 73.1364C309.835 73.1364 309.353 72.9986 308.936 72.723C308.518 72.4446 308.191 72.0526 307.956 71.5469C307.72 71.0384 307.602 70.4375 307.602 69.7443C307.602 69.0568 307.72 68.4602 307.956 67.9545C308.191 67.4489 308.52 67.0582 308.94 66.7827C309.36 66.5071 309.846 66.3693 310.397 66.3693C310.824 66.3693 311.16 66.4403 311.407 66.5824C311.657 66.7216 311.848 66.8807 311.978 67.0597C312.112 67.2358 312.216 67.3807 312.289 67.4943H312.375V64.2727H313.38V73H312.409V71.9943H312.289C312.216 72.1136 312.11 72.2642 311.974 72.446C311.838 72.625 311.643 72.7855 311.39 72.9276C311.137 73.0668 310.801 73.1364 310.38 73.1364ZM310.517 72.233C310.92 72.233 311.261 72.1278 311.539 71.9176C311.818 71.7045 312.029 71.4105 312.174 71.0355C312.319 70.6577 312.392 70.2216 312.392 69.7273C312.392 69.2386 312.321 68.8111 312.179 68.4446C312.037 68.0753 311.826 67.7884 311.548 67.5838C311.27 67.3764 310.926 67.2727 310.517 67.2727C310.091 67.2727 309.735 67.3821 309.451 67.6009C309.17 67.8168 308.958 68.1108 308.816 68.483C308.677 68.8523 308.608 69.267 308.608 69.7273C308.608 70.1932 308.679 70.6165 308.821 70.9972C308.966 71.375 309.179 71.6761 309.46 71.9006C309.744 72.1222 310.096 72.233 310.517 72.233ZM319.998 67.9205L319.095 68.1761C319.038 68.0256 318.954 67.8793 318.843 67.7372C318.735 67.5923 318.588 67.473 318.4 67.3793C318.213 67.2855 317.973 67.2386 317.68 67.2386C317.279 67.2386 316.946 67.331 316.679 67.5156C316.414 67.6974 316.282 67.929 316.282 68.2102C316.282 68.4602 316.373 68.6577 316.555 68.8026C316.737 68.9474 317.021 69.0682 317.407 69.1648L318.379 69.4034C318.964 69.5455 319.4 69.7628 319.687 70.0554C319.974 70.3452 320.118 70.7187 320.118 71.1761C320.118 71.5511 320.01 71.8864 319.794 72.1818C319.581 72.4773 319.282 72.7102 318.899 72.8807C318.515 73.0511 318.069 73.1364 317.561 73.1364C316.893 73.1364 316.341 72.9915 315.903 72.7017C315.466 72.4119 315.189 71.9886 315.072 71.4318L316.027 71.1932C316.118 71.5455 316.289 71.8097 316.542 71.9858C316.798 72.1619 317.132 72.25 317.544 72.25C318.012 72.25 318.385 72.1506 318.66 71.9517C318.939 71.75 319.078 71.5085 319.078 71.2273C319.078 71 318.998 70.8097 318.839 70.6562C318.68 70.5 318.436 70.3835 318.106 70.3068L317.015 70.0511C316.416 69.9091 315.975 69.6889 315.694 69.3906C315.416 69.0895 315.277 68.7131 315.277 68.2614C315.277 67.892 315.38 67.5653 315.588 67.2812C315.798 66.9972 316.083 66.7741 316.444 66.6122C316.808 66.4503 317.22 66.3693 317.68 66.3693C318.328 66.3693 318.836 66.5114 319.206 66.7955C319.578 67.0795 319.842 67.4545 319.998 67.9205ZM325.143 73V64.2727H328.092C328.773 64.2727 329.333 64.3892 329.771 64.6222C330.208 64.8523 330.532 65.169 330.742 65.5724C330.952 65.9759 331.058 66.4347 331.058 66.9489C331.058 67.4631 330.952 67.919 330.742 68.3168C330.532 68.7145 330.21 69.027 329.775 69.2543C329.34 69.4787 328.785 69.5909 328.109 69.5909H325.722V68.6364H328.075C328.54 68.6364 328.915 68.5682 329.2 68.4318C329.487 68.2955 329.694 68.1023 329.822 67.8523C329.952 67.5994 330.018 67.2983 330.018 66.9489C330.018 66.5994 329.952 66.294 329.822 66.0327C329.691 65.7713 329.482 65.5696 329.195 65.4276C328.908 65.2827 328.529 65.2102 328.058 65.2102H326.2V73H325.143ZM329.251 69.0795L331.398 73H330.171L328.058 69.0795H329.251ZM335.356 73.1364C334.725 73.1364 334.181 72.9972 333.724 72.7188C333.27 72.4375 332.919 72.0455 332.672 71.5426C332.427 71.0369 332.305 70.4489 332.305 69.7784C332.305 69.108 332.427 68.517 332.672 68.0057C332.919 67.4915 333.262 67.0909 333.703 66.804C334.146 66.5142 334.663 66.3693 335.254 66.3693C335.595 66.3693 335.931 66.4261 336.264 66.5398C336.596 66.6534 336.899 66.8381 337.172 67.0938C337.444 67.3466 337.662 67.6818 337.824 68.0994C337.985 68.517 338.066 69.0312 338.066 69.642V70.0682H333.021V69.1989H337.044C337.044 68.8295 336.97 68.5 336.822 68.2102C336.677 67.9205 336.47 67.6918 336.2 67.5241C335.933 67.3565 335.618 67.2727 335.254 67.2727C334.853 67.2727 334.507 67.3722 334.214 67.571C333.924 67.767 333.701 68.0227 333.545 68.3381C333.389 68.6534 333.311 68.9915 333.311 69.3523V69.9318C333.311 70.4261 333.396 70.8452 333.566 71.1889C333.74 71.5298 333.98 71.7898 334.287 71.9688C334.593 72.1449 334.95 72.233 335.356 72.233C335.62 72.233 335.859 72.196 336.072 72.1222C336.288 72.0455 336.474 71.9318 336.63 71.7812C336.787 71.6278 336.907 71.4375 336.993 71.2102L337.964 71.483C337.862 71.8125 337.69 72.1023 337.449 72.3523C337.207 72.5994 336.909 72.7926 336.554 72.9318C336.199 73.0682 335.799 73.1364 335.356 73.1364ZM344.749 66.4545L342.329 73H341.306L338.886 66.4545H339.977L341.783 71.6705H341.852L343.658 66.4545H344.749ZM346.077 73V66.4545H347.082V73H346.077ZM346.588 65.3636C346.392 65.3636 346.223 65.2969 346.081 65.1634C345.942 65.0298 345.872 64.8693 345.872 64.6818C345.872 64.4943 345.942 64.3338 346.081 64.2003C346.223 64.0668 346.392 64 346.588 64C346.784 64 346.952 64.0668 347.091 64.2003C347.233 64.3338 347.304 64.4943 347.304 64.6818C347.304 64.8693 347.233 65.0298 347.091 65.1634C346.952 65.2969 346.784 65.3636 346.588 65.3636ZM351.669 73.1364C351.038 73.1364 350.494 72.9972 350.037 72.7188C349.582 72.4375 349.231 72.0455 348.984 71.5426C348.74 71.0369 348.618 70.4489 348.618 69.7784C348.618 69.108 348.74 68.517 348.984 68.0057C349.231 67.4915 349.575 67.0909 350.015 66.804C350.458 66.5142 350.975 66.3693 351.566 66.3693C351.907 66.3693 352.244 66.4261 352.576 66.5398C352.909 66.6534 353.211 66.8381 353.484 67.0938C353.757 67.3466 353.974 67.6818 354.136 68.0994C354.298 68.517 354.379 69.0312 354.379 69.642V70.0682H349.333V69.1989H353.356C353.356 68.8295 353.282 68.5 353.135 68.2102C352.99 67.9205 352.782 67.6918 352.512 67.5241C352.245 67.3565 351.93 67.2727 351.566 67.2727C351.166 67.2727 350.819 67.3722 350.527 67.571C350.237 67.767 350.014 68.0227 349.858 68.3381C349.701 68.6534 349.623 68.9915 349.623 69.3523V69.9318C349.623 70.4261 349.708 70.8452 349.879 71.1889C350.052 71.5298 350.292 71.7898 350.599 71.9688C350.906 72.1449 351.262 72.233 351.669 72.233C351.933 72.233 352.172 72.196 352.385 72.1222C352.6 72.0455 352.787 71.9318 352.943 71.7812C353.099 71.6278 353.22 71.4375 353.305 71.2102L354.277 71.483C354.174 71.8125 354.002 72.1023 353.761 72.3523C353.52 72.5994 353.221 72.7926 352.866 72.9318C352.511 73.0682 352.112 73.1364 351.669 73.1364ZM357.392 73L355.397 66.4545H356.454L357.869 71.4659H357.937L359.335 66.4545H360.409L361.789 71.4489H361.858L363.272 66.4545H364.329L362.335 73H361.346L359.914 67.9716H359.812L358.38 73H357.392Z" fill="black"/>
<circle cx="254.5" cy="17.5" r="7" stroke="black"/>
<path d="M101.845 41.0121L248 19.5" stroke="black" stroke-width="2"/>
<circle cx="254.5" cy="61.5" r="7" stroke="black"/>
<circle cx="101.5" cy="41.5" r="7.5" fill="#0B091C"/>
<path d="M102 43L247.5 59.5" stroke="black" stroke-opacity="0.86" stroke-width="2"/>
</svg>
