<svg width="513" height="162" viewBox="0 0 513 162" fill="none" xmlns="http://www.w3.org/2000/svg">
<path d="M112.759 5.27273H115.034L117.438 11.1364H117.54L119.943 5.27273H122.219V14H120.429V8.3196H120.357L118.098 13.9574H116.879L114.621 8.2983H114.548V14H112.759V5.27273ZM131.759 9.63636C131.759 10.5881 131.578 11.3977 131.218 12.0653C130.86 12.733 130.371 13.2429 129.752 13.5952C129.135 13.9446 128.442 14.1193 127.672 14.1193C126.897 14.1193 126.201 13.9432 125.584 13.5909C124.968 13.2386 124.48 12.7287 124.123 12.0611C123.765 11.3935 123.586 10.5852 123.586 9.63636C123.586 8.68466 123.765 7.875 124.123 7.20739C124.48 6.53977 124.968 6.03125 125.584 5.68182C126.201 5.32955 126.897 5.15341 127.672 5.15341C128.442 5.15341 129.135 5.32955 129.752 5.68182C130.371 6.03125 130.86 6.53977 131.218 7.20739C131.578 7.875 131.759 8.68466 131.759 9.63636ZM129.888 9.63636C129.888 9.01989 129.796 8.5 129.611 8.0767C129.429 7.65341 129.172 7.33239 128.84 7.11364C128.507 6.89489 128.118 6.78551 127.672 6.78551C127.226 6.78551 126.837 6.89489 126.505 7.11364C126.172 7.33239 125.914 7.65341 125.729 8.0767C125.547 8.5 125.456 9.01989 125.456 9.63636C125.456 10.2528 125.547 10.7727 125.729 11.196C125.914 11.6193 126.172 11.9403 126.505 12.1591C126.837 12.3778 127.226 12.4872 127.672 12.4872C128.118 12.4872 128.507 12.3778 128.84 12.1591C129.172 11.9403 129.429 11.6193 129.611 11.196C129.796 10.7727 129.888 10.2528 129.888 9.63636ZM136.219 14H133.126V5.27273H136.245C137.123 5.27273 137.879 5.44744 138.512 5.79688C139.146 6.14347 139.633 6.64205 139.974 7.29261C140.317 7.94318 140.489 8.72159 140.489 9.62784C140.489 10.5369 140.317 11.3182 139.974 11.9716C139.633 12.625 139.143 13.1264 138.504 13.4759C137.867 13.8253 137.106 14 136.219 14ZM134.971 12.419H136.143C136.688 12.419 137.147 12.3224 137.519 12.1293C137.894 11.9332 138.175 11.6307 138.363 11.2216C138.553 10.8097 138.648 10.2784 138.648 9.62784C138.648 8.98295 138.553 8.45597 138.363 8.04688C138.175 7.63778 137.896 7.33665 137.523 7.14347C137.151 6.95028 136.692 6.85369 136.147 6.85369H134.971V12.419ZM141.856 14V5.27273H147.737V6.79403H143.701V8.87358H147.434V10.3949H143.701V12.4787H147.754V14H141.856ZM149.204 14V5.27273H152.647C153.306 5.27273 153.869 5.39062 154.335 5.62642C154.803 5.85937 155.16 6.19034 155.404 6.61932C155.651 7.04545 155.775 7.54687 155.775 8.12358C155.775 8.70312 155.65 9.2017 155.4 9.61932C155.15 10.0341 154.788 10.3523 154.313 10.5739C153.842 10.7955 153.271 10.9062 152.6 10.9062H150.295V9.4233H152.302C152.654 9.4233 152.947 9.375 153.18 9.27841C153.413 9.18182 153.586 9.03693 153.7 8.84375C153.816 8.65057 153.874 8.41051 153.874 8.12358C153.874 7.83381 153.816 7.58949 153.7 7.39062C153.586 7.19176 153.411 7.04119 153.175 6.93892C152.942 6.83381 152.648 6.78125 152.293 6.78125H151.049V14H149.204ZM153.917 10.0284L156.086 14H154.049L151.927 10.0284H153.917ZM158.583 14H156.606L159.619 5.27273H161.996L165.005 14H163.028L160.842 7.26705H160.773L158.583 14ZM158.46 10.5696H163.13V12.0099H158.46V10.5696ZM164.657 6.79403V5.27273H171.824V6.79403H169.152V14H167.328V6.79403H164.657ZM180.626 9.63636C180.626 10.5881 180.446 11.3977 180.085 12.0653C179.727 12.733 179.238 13.2429 178.619 13.5952C178.002 13.9446 177.309 14.1193 176.539 14.1193C175.764 14.1193 175.068 13.9432 174.451 13.5909C173.835 13.2386 173.348 12.7287 172.99 12.0611C172.632 11.3935 172.453 10.5852 172.453 9.63636C172.453 8.68466 172.632 7.875 172.99 7.20739C173.348 6.53977 173.835 6.03125 174.451 5.68182C175.068 5.32955 175.764 5.15341 176.539 5.15341C177.309 5.15341 178.002 5.32955 178.619 5.68182C179.238 6.03125 179.727 6.53977 180.085 7.20739C180.446 7.875 180.626 8.68466 180.626 9.63636ZM178.755 9.63636C178.755 9.01989 178.663 8.5 178.478 8.0767C178.297 7.65341 178.039 7.33239 177.707 7.11364C177.375 6.89489 176.985 6.78551 176.539 6.78551C176.093 6.78551 175.704 6.89489 175.372 7.11364C175.039 7.33239 174.781 7.65341 174.596 8.0767C174.414 8.5 174.324 9.01989 174.324 9.63636C174.324 10.2528 174.414 10.7727 174.596 11.196C174.781 11.6193 175.039 11.9403 175.372 12.1591C175.704 12.3778 176.093 12.4872 176.539 12.4872C176.985 12.4872 177.375 12.3778 177.707 12.1591C178.039 11.9403 178.297 11.6193 178.478 11.196C178.663 10.7727 178.755 10.2528 178.755 9.63636ZM181.993 14V5.27273H185.436C186.095 5.27273 186.658 5.39062 187.124 5.62642C187.592 5.85937 187.949 6.19034 188.193 6.61932C188.44 7.04545 188.564 7.54687 188.564 8.12358C188.564 8.70312 188.439 9.2017 188.189 9.61932C187.939 10.0341 187.577 10.3523 187.102 10.5739C186.631 10.7955 186.06 10.9062 185.389 10.9062H183.084V9.4233H185.091C185.443 9.4233 185.736 9.375 185.969 9.27841C186.202 9.18182 186.375 9.03693 186.489 8.84375C186.605 8.65057 186.663 8.41051 186.663 8.12358C186.663 7.83381 186.605 7.58949 186.489 7.39062C186.375 7.19176 186.2 7.04119 185.964 6.93892C185.732 6.83381 185.438 6.78125 185.082 6.78125H183.838V14H181.993ZM186.706 10.0284L188.875 14H186.838L184.716 10.0284H186.706Z" fill="black"/>
<path d="M0.758523 56V47.2727H4.2017C4.8608 47.2727 5.4233 47.3906 5.8892 47.6264C6.35795 47.8594 6.71449 48.1903 6.95881 48.6193C7.20597 49.0455 7.32955 49.5469 7.32955 50.1236C7.32955 50.7031 7.20455 51.2017 6.95455 51.6193C6.70455 52.0341 6.34233 52.3523 5.8679 52.5739C5.39631 52.7955 4.82528 52.9062 4.15483 52.9062H1.84943V51.4233H3.85653C4.20881 51.4233 4.50142 51.375 4.73438 51.2784C4.96733 51.1818 5.14063 51.0369 5.25426 50.8438C5.37074 50.6506 5.42898 50.4105 5.42898 50.1236C5.42898 49.8338 5.37074 49.5895 5.25426 49.3906C5.14063 49.1918 4.96591 49.0412 4.73011 48.9389C4.49716 48.8338 4.20313 48.7812 3.84801 48.7812H2.60369V56H0.758523ZM5.47159 52.0284L7.64062 56H5.60369L3.48153 52.0284H5.47159ZM8.63352 56V47.2727H14.5142V48.794H10.4787V50.8736H14.2116V52.3949H10.4787V54.4787H14.5312V56H8.63352ZM19.2752 52.9659H20.8434L21.6317 53.9801L22.4073 54.8835L23.869 56.7159H22.1474L21.1417 55.4801L20.6261 54.7472L19.2752 52.9659ZM24.0011 51.6364C24.0011 52.5881 23.8207 53.3977 23.4599 54.0653C23.1019 54.733 22.6133 55.2429 21.994 55.5952C21.3775 55.9446 20.6843 56.1193 19.9144 56.1193C19.1388 56.1193 18.4428 55.9432 17.8263 55.5909C17.2099 55.2386 16.7227 54.7287 16.3647 54.0611C16.0067 53.3935 15.8278 52.5852 15.8278 51.6364C15.8278 50.6847 16.0067 49.875 16.3647 49.2074C16.7227 48.5398 17.2099 48.0312 17.8263 47.6818C18.4428 47.3295 19.1388 47.1534 19.9144 47.1534C20.6843 47.1534 21.3775 47.3295 21.994 47.6818C22.6133 48.0312 23.1019 48.5398 23.4599 49.2074C23.8207 49.875 24.0011 50.6847 24.0011 51.6364ZM22.1303 51.6364C22.1303 51.0199 22.038 50.5 21.8533 50.0767C21.6715 49.6534 21.4144 49.3324 21.082 49.1136C20.7496 48.8949 20.3604 48.7855 19.9144 48.7855C19.4684 48.7855 19.0792 48.8949 18.7468 49.1136C18.4144 49.3324 18.1559 49.6534 17.9712 50.0767C17.7894 50.5 17.6985 51.0199 17.6985 51.6364C17.6985 52.2528 17.7894 52.7727 17.9712 53.196C18.1559 53.6193 18.4144 53.9403 18.7468 54.1591C19.0792 54.3778 19.4684 54.4872 19.9144 54.4872C20.3604 54.4872 20.7496 54.3778 21.082 54.1591C21.4144 53.9403 21.6715 53.6193 21.8533 53.196C22.038 52.7727 22.1303 52.2528 22.1303 51.6364ZM29.4119 50.9162V52.3565H25.4318V50.9162H29.4119ZM34.3636 56.1918C33.6307 56.1889 33 56.0085 32.4716 55.6506C31.946 55.2926 31.5412 54.7741 31.2571 54.0952C30.9759 53.4162 30.8366 52.5994 30.8395 51.6449C30.8395 50.6932 30.9801 49.8821 31.2614 49.2116C31.5455 48.5412 31.9503 48.0312 32.4759 47.6818C33.0043 47.3295 33.6335 47.1534 34.3636 47.1534C35.0938 47.1534 35.7216 47.3295 36.2472 47.6818C36.7756 48.0341 37.1818 48.5455 37.4659 49.2159C37.75 49.8835 37.8906 50.6932 37.8878 51.6449C37.8878 52.6023 37.7457 53.4205 37.4616 54.0994C37.1804 54.7784 36.777 55.2969 36.2514 55.6548C35.7259 56.0128 35.0966 56.1918 34.3636 56.1918ZM34.3636 54.6619C34.8636 54.6619 35.2628 54.4105 35.5611 53.9077C35.8594 53.4048 36.0071 52.6506 36.0043 51.6449C36.0043 50.983 35.9361 50.4318 35.7997 49.9915C35.6662 49.5511 35.4759 49.2202 35.2287 48.9986C34.9844 48.777 34.696 48.6662 34.3636 48.6662C33.8665 48.6662 33.4688 48.9148 33.1705 49.4119C32.8722 49.9091 32.7216 50.6534 32.7188 51.6449C32.7188 52.3153 32.7855 52.875 32.919 53.3239C33.0554 53.7699 33.2472 54.1051 33.4943 54.3295C33.7415 54.5511 34.0312 54.6619 34.3636 54.6619ZM43.0004 47.2727V56H41.1552V49.0241H41.104L39.1055 50.277V48.6406L41.266 47.2727H43.0004Z" fill="black"/>
<path d="M0.758523 103V94.2727H4.2017C4.8608 94.2727 5.4233 94.3906 5.8892 94.6264C6.35795 94.8594 6.71449 95.1903 6.95881 95.6193C7.20597 96.0455 7.32955 96.5469 7.32955 97.1236C7.32955 97.7031 7.20455 98.2017 6.95455 98.6193C6.70455 99.0341 6.34233 99.3523 5.8679 99.5739C5.39631 99.7955 4.82528 99.9062 4.15483 99.9062H1.84943V98.4233H3.85653C4.20881 98.4233 4.50142 98.375 4.73438 98.2784C4.96733 98.1818 5.14063 98.0369 5.25426 97.8438C5.37074 97.6506 5.42898 97.4105 5.42898 97.1236C5.42898 96.8338 5.37074 96.5895 5.25426 96.3906C5.14063 96.1918 4.96591 96.0412 4.73011 95.9389C4.49716 95.8338 4.20313 95.7812 3.84801 95.7812H2.60369V103H0.758523ZM5.47159 99.0284L7.64062 103H5.60369L3.48153 99.0284H5.47159ZM8.63352 103V94.2727H14.5142V95.794H10.4787V97.8736H14.2116V99.3949H10.4787V101.479H14.5312V103H8.63352ZM19.2752 99.9659H20.8434L21.6317 100.98L22.4073 101.884L23.869 103.716H22.1474L21.1417 102.48L20.6261 101.747L19.2752 99.9659ZM24.0011 98.6364C24.0011 99.5881 23.8207 100.398 23.4599 101.065C23.1019 101.733 22.6133 102.243 21.994 102.595C21.3775 102.945 20.6843 103.119 19.9144 103.119C19.1388 103.119 18.4428 102.943 17.8263 102.591C17.2099 102.239 16.7227 101.729 16.3647 101.061C16.0067 100.393 15.8278 99.5852 15.8278 98.6364C15.8278 97.6847 16.0067 96.875 16.3647 96.2074C16.7227 95.5398 17.2099 95.0312 17.8263 94.6818C18.4428 94.3295 19.1388 94.1534 19.9144 94.1534C20.6843 94.1534 21.3775 94.3295 21.994 94.6818C22.6133 95.0312 23.1019 95.5398 23.4599 96.2074C23.8207 96.875 24.0011 97.6847 24.0011 98.6364ZM22.1303 98.6364C22.1303 98.0199 22.038 97.5 21.8533 97.0767C21.6715 96.6534 21.4144 96.3324 21.082 96.1136C20.7496 95.8949 20.3604 95.7855 19.9144 95.7855C19.4684 95.7855 19.0792 95.8949 18.7468 96.1136C18.4144 96.3324 18.1559 96.6534 17.9712 97.0767C17.7894 97.5 17.6985 98.0199 17.6985 98.6364C17.6985 99.2528 17.7894 99.7727 17.9712 100.196C18.1559 100.619 18.4144 100.94 18.7468 101.159C19.0792 101.378 19.4684 101.487 19.9144 101.487C20.3604 101.487 20.7496 101.378 21.082 101.159C21.4144 100.94 21.6715 100.619 21.8533 100.196C22.038 99.7727 22.1303 99.2528 22.1303 98.6364ZM29.4119 97.9162V99.3565H25.4318V97.9162H29.4119ZM34.3636 103.192C33.6307 103.189 33 103.009 32.4716 102.651C31.946 102.293 31.5412 101.774 31.2571 101.095C30.9759 100.416 30.8366 99.5994 30.8395 98.6449C30.8395 97.6932 30.9801 96.8821 31.2614 96.2116C31.5455 95.5412 31.9503 95.0312 32.4759 94.6818C33.0043 94.3295 33.6335 94.1534 34.3636 94.1534C35.0938 94.1534 35.7216 94.3295 36.2472 94.6818C36.7756 95.0341 37.1818 95.5455 37.4659 96.2159C37.75 96.8835 37.8906 97.6932 37.8878 98.6449C37.8878 99.6023 37.7457 100.42 37.4616 101.099C37.1804 101.778 36.777 102.297 36.2514 102.655C35.7259 103.013 35.0966 103.192 34.3636 103.192ZM34.3636 101.662C34.8636 101.662 35.2628 101.411 35.5611 100.908C35.8594 100.405 36.0071 99.6506 36.0043 98.6449C36.0043 97.983 35.9361 97.4318 35.7997 96.9915C35.6662 96.5511 35.4759 96.2202 35.2287 95.9986C34.9844 95.777 34.696 95.6662 34.3636 95.6662C33.8665 95.6662 33.4688 95.9148 33.1705 96.4119C32.8722 96.9091 32.7216 97.6534 32.7188 98.6449C32.7188 99.3153 32.7855 99.875 32.919 100.324C33.0554 100.77 33.2472 101.105 33.4943 101.33C33.7415 101.551 34.0312 101.662 34.3636 101.662ZM39.2035 103V101.67L42.31 98.794C42.5742 98.5384 42.7958 98.3082 42.9748 98.1037C43.1566 97.8991 43.2944 97.6989 43.3881 97.5028C43.4819 97.304 43.5288 97.0895 43.5288 96.8594C43.5288 96.6037 43.4705 96.3835 43.354 96.1989C43.2376 96.0114 43.0785 95.8679 42.8768 95.7685C42.6751 95.6662 42.4464 95.6151 42.1907 95.6151C41.9237 95.6151 41.6907 95.669 41.4918 95.777C41.293 95.8849 41.1396 96.0398 41.0316 96.2415C40.9237 96.4432 40.8697 96.6832 40.8697 96.9616H39.1183C39.1183 96.3906 39.2475 95.8949 39.506 95.4744C39.7646 95.054 40.1268 94.7287 40.5927 94.4986C41.0586 94.2685 41.5955 94.1534 42.2035 94.1534C42.8285 94.1534 43.3725 94.2642 43.8356 94.4858C44.3015 94.7045 44.6637 95.0085 44.9222 95.3977C45.1808 95.7869 45.31 96.233 45.31 96.7358C45.31 97.0653 45.2447 97.3906 45.114 97.7116C44.9862 98.0327 44.7575 98.3892 44.4279 98.7812C44.0984 99.1705 43.6339 99.6378 43.0344 100.183L41.7603 101.432V101.491H45.4251V103H39.2035Z" fill="black"/>
<path d="M0.758523 147V138.273H4.2017C4.8608 138.273 5.4233 138.391 5.8892 138.626C6.35795 138.859 6.71449 139.19 6.95881 139.619C7.20597 140.045 7.32955 140.547 7.32955 141.124C7.32955 141.703 7.20455 142.202 6.95455 142.619C6.70455 143.034 6.34233 143.352 5.8679 143.574C5.39631 143.795 4.82528 143.906 4.15483 143.906H1.84943V142.423H3.85653C4.20881 142.423 4.50142 142.375 4.73438 142.278C4.96733 142.182 5.14063 142.037 5.25426 141.844C5.37074 141.651 5.42898 141.411 5.42898 141.124C5.42898 140.834 5.37074 140.589 5.25426 140.391C5.14063 140.192 4.96591 140.041 4.73011 139.939C4.49716 139.834 4.20313 139.781 3.84801 139.781H2.60369V147H0.758523ZM5.47159 143.028L7.64062 147H5.60369L3.48153 143.028H5.47159ZM8.63352 147V138.273H14.5142V139.794H10.4787V141.874H14.2116V143.395H10.4787V145.479H14.5312V147H8.63352ZM19.2752 143.966H20.8434L21.6317 144.98L22.4073 145.884L23.869 147.716H22.1474L21.1417 146.48L20.6261 145.747L19.2752 143.966ZM24.0011 142.636C24.0011 143.588 23.8207 144.398 23.4599 145.065C23.1019 145.733 22.6133 146.243 21.994 146.595C21.3775 146.945 20.6843 147.119 19.9144 147.119C19.1388 147.119 18.4428 146.943 17.8263 146.591C17.2099 146.239 16.7227 145.729 16.3647 145.061C16.0067 144.393 15.8278 143.585 15.8278 142.636C15.8278 141.685 16.0067 140.875 16.3647 140.207C16.7227 139.54 17.2099 139.031 17.8263 138.682C18.4428 138.33 19.1388 138.153 19.9144 138.153C20.6843 138.153 21.3775 138.33 21.994 138.682C22.6133 139.031 23.1019 139.54 23.4599 140.207C23.8207 140.875 24.0011 141.685 24.0011 142.636ZM22.1303 142.636C22.1303 142.02 22.038 141.5 21.8533 141.077C21.6715 140.653 21.4144 140.332 21.082 140.114C20.7496 139.895 20.3604 139.786 19.9144 139.786C19.4684 139.786 19.0792 139.895 18.7468 140.114C18.4144 140.332 18.1559 140.653 17.9712 141.077C17.7894 141.5 17.6985 142.02 17.6985 142.636C17.6985 143.253 17.7894 143.773 17.9712 144.196C18.1559 144.619 18.4144 144.94 18.7468 145.159C19.0792 145.378 19.4684 145.487 19.9144 145.487C20.3604 145.487 20.7496 145.378 21.082 145.159C21.4144 144.94 21.6715 144.619 21.8533 144.196C22.038 143.773 22.1303 143.253 22.1303 142.636ZM29.4119 141.916V143.357H25.4318V141.916H29.4119ZM34.3636 147.192C33.6307 147.189 33 147.009 32.4716 146.651C31.946 146.293 31.5412 145.774 31.2571 145.095C30.9759 144.416 30.8366 143.599 30.8395 142.645C30.8395 141.693 30.9801 140.882 31.2614 140.212C31.5455 139.541 31.9503 139.031 32.4759 138.682C33.0043 138.33 33.6335 138.153 34.3636 138.153C35.0938 138.153 35.7216 138.33 36.2472 138.682C36.7756 139.034 37.1818 139.545 37.4659 140.216C37.75 140.884 37.8906 141.693 37.8878 142.645C37.8878 143.602 37.7457 144.42 37.4616 145.099C37.1804 145.778 36.777 146.297 36.2514 146.655C35.7259 147.013 35.0966 147.192 34.3636 147.192ZM34.3636 145.662C34.8636 145.662 35.2628 145.411 35.5611 144.908C35.8594 144.405 36.0071 143.651 36.0043 142.645C36.0043 141.983 35.9361 141.432 35.7997 140.991C35.6662 140.551 35.4759 140.22 35.2287 139.999C34.9844 139.777 34.696 139.666 34.3636 139.666C33.8665 139.666 33.4688 139.915 33.1705 140.412C32.8722 140.909 32.7216 141.653 32.7188 142.645C32.7188 143.315 32.7855 143.875 32.919 144.324C33.0554 144.77 33.2472 145.105 33.4943 145.33C33.7415 145.551 34.0312 145.662 34.3636 145.662ZM42.4293 147.119C41.793 147.119 41.2262 147.01 40.729 146.791C40.2347 146.57 39.8441 146.266 39.5572 145.879C39.2731 145.49 39.1268 145.041 39.1183 144.533H40.9762C40.9876 144.746 41.0572 144.933 41.185 145.095C41.3157 145.254 41.489 145.378 41.7049 145.466C41.9208 145.554 42.1637 145.598 42.4336 145.598C42.7148 145.598 42.9634 145.548 43.1793 145.449C43.3952 145.349 43.5643 145.212 43.6864 145.036C43.8086 144.859 43.8697 144.656 43.8697 144.426C43.8697 144.193 43.8043 143.987 43.6737 143.808C43.5458 143.626 43.3612 143.484 43.1197 143.382C42.881 143.28 42.5969 143.229 42.2674 143.229H41.4535V141.874H42.2674C42.5458 141.874 42.7915 141.825 43.0046 141.729C43.2205 141.632 43.3881 141.499 43.5075 141.328C43.6268 141.155 43.6864 140.953 43.6864 140.723C43.6864 140.504 43.6339 140.312 43.5288 140.148C43.4265 139.98 43.2816 139.849 43.0941 139.756C42.9094 139.662 42.6935 139.615 42.4464 139.615C42.1964 139.615 41.9677 139.661 41.7603 139.751C41.5529 139.839 41.3867 139.966 41.2617 140.131C41.1367 140.295 41.07 140.489 41.0614 140.71H39.293C39.3015 140.207 39.445 139.764 39.7234 139.381C40.0018 138.997 40.3768 138.697 40.8484 138.482C41.3228 138.263 41.8583 138.153 42.4549 138.153C43.0572 138.153 43.5842 138.263 44.0359 138.482C44.4876 138.7 44.8384 138.996 45.0884 139.368C45.3413 139.737 45.4663 140.152 45.4634 140.612C45.4663 141.101 45.3143 141.509 45.0075 141.835C44.7035 142.162 44.3072 142.369 43.8185 142.457V142.526C44.4606 142.608 44.9492 142.831 45.2844 143.195C45.6225 143.555 45.7901 144.007 45.7873 144.55C45.7901 145.047 45.6467 145.489 45.3569 145.875C45.07 146.261 44.6737 146.565 44.168 146.787C43.6623 147.009 43.0827 147.119 42.4293 147.119Z" fill="black"/>
<path d="M281.759 14V5.27273H285.202C285.861 5.27273 286.423 5.39062 286.889 5.62642C287.358 5.85937 287.714 6.19034 287.959 6.61932C288.206 7.04545 288.33 7.54687 288.33 8.12358C288.33 8.70312 288.205 9.2017 287.955 9.61932C287.705 10.0341 287.342 10.3523 286.868 10.5739C286.396 10.7955 285.825 10.9062 285.155 10.9062H282.849V9.4233H284.857C285.209 9.4233 285.501 9.375 285.734 9.27841C285.967 9.18182 286.141 9.03693 286.254 8.84375C286.371 8.65057 286.429 8.41051 286.429 8.12358C286.429 7.83381 286.371 7.58949 286.254 7.39062C286.141 7.19176 285.966 7.04119 285.73 6.93892C285.497 6.83381 285.203 6.78125 284.848 6.78125H283.604V14H281.759ZM286.472 10.0284L288.641 14H286.604L284.482 10.0284H286.472ZM289.634 14V5.27273H295.514V6.79403H291.479V8.87358H295.212V10.3949H291.479V12.4787H295.531V14H289.634ZM298.558 5.27273L300.667 11.9034H300.748L302.862 5.27273H304.907L301.899 14H299.521L296.508 5.27273H298.558ZM307.803 5.27273V14H305.958V5.27273H307.803ZM309.321 14V5.27273H315.202V6.79403H311.166V8.87358H314.899V10.3949H311.166V12.4787H315.219V14H309.321ZM318.633 14L316.136 5.27273H318.152L319.596 11.3366H319.669L321.262 5.27273H322.988L324.578 11.3494H324.654L326.099 5.27273H328.115L325.618 14H323.819L322.157 8.29403H322.089L320.431 14H318.633ZM329.102 14V5.27273H334.983V6.79403H330.947V8.87358H334.68V10.3949H330.947V12.4787H335V14H329.102ZM336.45 14V5.27273H339.893C340.552 5.27273 341.115 5.39062 341.581 5.62642C342.049 5.85937 342.406 6.19034 342.65 6.61932C342.897 7.04545 343.021 7.54687 343.021 8.12358C343.021 8.70312 342.896 9.2017 342.646 9.61932C342.396 10.0341 342.034 10.3523 341.559 10.5739C341.088 10.7955 340.517 10.9062 339.846 10.9062H337.541V9.4233H339.548C339.9 9.4233 340.193 9.375 340.426 9.27841C340.659 9.18182 340.832 9.03693 340.946 8.84375C341.062 8.65057 341.12 8.41051 341.12 8.12358C341.12 7.83381 341.062 7.58949 340.946 7.39062C340.832 7.19176 340.657 7.04119 340.422 6.93892C340.189 6.83381 339.895 6.78125 339.539 6.78125H338.295V14H336.45ZM341.163 10.0284L343.332 14H341.295L339.173 10.0284H341.163Z" fill="#111321"/>
<path d="M433.263 14H431.286L434.298 5.27273H436.676L439.685 14H437.707L435.521 7.26705H435.453L433.263 14ZM433.139 10.5696H437.81V12.0099H433.139V10.5696ZM440.735 14V5.27273H444.178C444.84 5.27273 445.404 5.39915 445.87 5.65199C446.336 5.90199 446.691 6.25 446.935 6.69602C447.183 7.1392 447.306 7.65057 447.306 8.23011C447.306 8.80966 447.181 9.32102 446.931 9.7642C446.681 10.2074 446.319 10.5526 445.844 10.7997C445.373 11.0469 444.802 11.1705 444.131 11.1705H441.937V9.69176H443.833C444.188 9.69176 444.481 9.63068 444.711 9.50852C444.944 9.38352 445.117 9.21165 445.231 8.9929C445.347 8.77131 445.406 8.51705 445.406 8.23011C445.406 7.94034 445.347 7.6875 445.231 7.47159C445.117 7.25284 444.944 7.08381 444.711 6.96449C444.478 6.84233 444.183 6.78125 443.825 6.78125H442.58V14H440.735ZM448.505 14V5.27273H451.948C452.61 5.27273 453.174 5.39915 453.64 5.65199C454.105 5.90199 454.461 6.25 454.705 6.69602C454.952 7.1392 455.076 7.65057 455.076 8.23011C455.076 8.80966 454.951 9.32102 454.701 9.7642C454.451 10.2074 454.088 10.5526 453.614 10.7997C453.142 11.0469 452.571 11.1705 451.901 11.1705H449.706V9.69176H451.603C451.958 9.69176 452.25 9.63068 452.48 9.50852C452.713 9.38352 452.887 9.21165 453 8.9929C453.117 8.77131 453.175 8.51705 453.175 8.23011C453.175 7.94034 453.117 7.6875 453 7.47159C452.887 7.25284 452.713 7.08381 452.48 6.96449C452.248 6.84233 451.952 6.78125 451.594 6.78125H450.35V14H448.505ZM456.274 14V5.27273H459.717C460.376 5.27273 460.939 5.39062 461.405 5.62642C461.874 5.85937 462.23 6.19034 462.474 6.61932C462.722 7.04545 462.845 7.54687 462.845 8.12358C462.845 8.70312 462.72 9.2017 462.47 9.61932C462.22 10.0341 461.858 10.3523 461.384 10.5739C460.912 10.7955 460.341 10.9062 459.67 10.9062H457.365V9.4233H459.372C459.724 9.4233 460.017 9.375 460.25 9.27841C460.483 9.18182 460.656 9.03693 460.77 8.84375C460.886 8.65057 460.945 8.41051 460.945 8.12358C460.945 7.83381 460.886 7.58949 460.77 7.39062C460.656 7.19176 460.482 7.04119 460.246 6.93892C460.013 6.83381 459.719 6.78125 459.364 6.78125H458.119V14H456.274ZM460.987 10.0284L463.156 14H461.119L458.997 10.0284H460.987ZM472.169 9.63636C472.169 10.5881 471.989 11.3977 471.628 12.0653C471.27 12.733 470.781 13.2429 470.162 13.5952C469.545 13.9446 468.852 14.1193 468.082 14.1193C467.307 14.1193 466.611 13.9432 465.994 13.5909C465.378 13.2386 464.891 12.7287 464.533 12.0611C464.175 11.3935 463.996 10.5852 463.996 9.63636C463.996 8.68466 464.175 7.875 464.533 7.20739C464.891 6.53977 465.378 6.03125 465.994 5.68182C466.611 5.32955 467.307 5.15341 468.082 5.15341C468.852 5.15341 469.545 5.32955 470.162 5.68182C470.781 6.03125 471.27 6.53977 471.628 7.20739C471.989 7.875 472.169 8.68466 472.169 9.63636ZM470.298 9.63636C470.298 9.01989 470.206 8.5 470.021 8.0767C469.839 7.65341 469.582 7.33239 469.25 7.11364C468.918 6.89489 468.528 6.78551 468.082 6.78551C467.636 6.78551 467.247 6.89489 466.915 7.11364C466.582 7.33239 466.324 7.65341 466.139 8.0767C465.957 8.5 465.866 9.01989 465.866 9.63636C465.866 10.2528 465.957 10.7727 466.139 11.196C466.324 11.6193 466.582 11.9403 466.915 12.1591C467.247 12.3778 467.636 12.4872 468.082 12.4872C468.528 12.4872 468.918 12.3778 469.25 12.1591C469.582 11.9403 469.839 11.6193 470.021 11.196C470.206 10.7727 470.298 10.2528 470.298 9.63636ZM474.62 5.27273L476.73 11.9034H476.811L478.924 5.27273H480.97L477.961 14H475.583L472.571 5.27273H474.62ZM482.02 14V5.27273H487.901V6.79403H483.865V8.87358H487.598V10.3949H483.865V12.4787H487.918V14H482.02ZM489.368 14V5.27273H492.811C493.47 5.27273 494.033 5.39062 494.499 5.62642C494.967 5.85937 495.324 6.19034 495.568 6.61932C495.815 7.04545 495.939 7.54687 495.939 8.12358C495.939 8.70312 495.814 9.2017 495.564 9.61932C495.314 10.0341 494.952 10.3523 494.477 10.5739C494.006 10.7955 493.435 10.9062 492.764 10.9062H490.459V9.4233H492.466C492.818 9.4233 493.111 9.375 493.344 9.27841C493.577 9.18182 493.75 9.03693 493.864 8.84375C493.98 8.65057 494.038 8.41051 494.038 8.12358C494.038 7.83381 493.98 7.58949 493.864 7.39062C493.75 7.19176 493.575 7.04119 493.339 6.93892C493.107 6.83381 492.813 6.78125 492.457 6.78125H491.213V14H489.368ZM494.081 10.0284L496.25 14H494.213L492.091 10.0284H494.081Z" fill="#111321"/>
<path d="M262.354 9.85355C262.549 9.65829 262.549 9.34171 262.354 9.14645L259.172 5.96447C258.976 5.7692 258.66 5.7692 258.464 5.96447C258.269 6.15973 258.269 6.47631 258.464 6.67157L261.293 9.5L258.464 12.3284C258.269 12.5237 258.269 12.8403 258.464 13.0355C258.66 13.2308 258.976 13.2308 259.172 13.0355L262.354 9.85355ZM203 9.5V10H262V9.5V9H203V9.5Z" fill="black"/>
<path d="M417.354 10.3536C417.549 10.1583 417.549 9.84171 417.354 9.64645L414.172 6.46447C413.976 6.2692 413.66 6.2692 413.464 6.46447C413.269 6.65973 413.269 6.97631 413.464 7.17157L416.293 10L413.464 12.8284C413.269 13.0237 413.269 13.3403 413.464 13.5355C413.66 13.7308 413.976 13.7308 414.172 13.5355L417.354 10.3536ZM358 10V10.5H417V10V9.5H358V10Z" fill="black"/>
<rect x="102" y="36" width="410" height="31" stroke="black" stroke-width="2"/>
<rect x="102" y="83" width="410" height="31" stroke="black" stroke-width="2"/>
<rect x="102" y="130" width="410" height="31" stroke="black" stroke-width="2"/>
</svg>
